<svg width="131" height="100" viewBox="0 0 131 100" fill="none" xmlns="http://www.w3.org/2000/svg">
<path d="M0 68.9802H130.123V95.2786C130.123 97.8862 128.009 100 125.401 100H4.72143C2.11386 100 0 97.8862 0 95.2786V68.9802Z" fill="#A7001E"/>
<path d="M0 4.72144C0 2.11386 2.11386 0 4.72144 0H125.401C128.009 0 130.123 2.11386 130.123 4.72144V68.9802H0V4.72144Z" fill="#1E0F1C"/>
<path d="M23.6864 15.5513C24.537 14.8454 24.9624 13.9224 24.9624 12.7821C24.9624 11.6419 24.5461 10.737 23.7135 10.0673C22.881 9.37956 21.8313 9.03568 20.5643 9.03568H18.0124C17.2884 9.03568 16.9265 9.39766 16.9265 10.1216V16.23C16.9265 16.4653 17.026 16.5829 17.2251 16.5829H20.5643C21.8132 16.5829 22.8538 16.239 23.6864 15.5513ZM21.4874 7.81401C23.2249 7.81401 24.6456 8.25743 25.7497 9.14428C26.8718 10.0311 27.4328 11.2075 27.4328 12.6735C27.4328 14.1215 26.8808 15.325 25.7768 16.2843C24.6909 17.2254 23.4782 17.7141 22.1389 17.7503L22.1118 17.8046C22.4919 17.9313 22.7905 18.1665 23.0077 18.5104L27.1071 25.026C27.4871 25.6595 28.0844 26.0305 28.8989 26.1391L29.3875 26.1934C29.6228 26.2296 29.7404 26.3472 29.7404 26.5463C29.7404 26.7997 29.6047 26.9264 29.3332 26.9264C27.5957 26.854 26.5098 26.8178 26.0754 26.8178C25.6592 26.8178 25.3334 26.6368 25.0981 26.2748L20.51 18.6462C20.1481 18.0851 19.7499 17.8046 19.3155 17.8046C19.3155 17.8046 19.3065 17.8046 19.2884 17.8046H17.3337C17.0622 17.8046 16.9265 17.9132 16.9265 18.1303V25.026C16.9265 25.3518 17.0441 25.6142 17.2794 25.8133C17.5147 26.0124 17.8043 26.121 18.1481 26.1391L19.2884 26.1934C19.4875 26.1934 19.587 26.3201 19.587 26.5735C19.587 26.8087 19.4603 26.9264 19.2069 26.9264L15.8134 26.8178L12.7999 26.9264C12.5647 26.9264 12.4289 26.8178 12.3927 26.6006C12.3927 26.3472 12.5013 26.2115 12.7185 26.1934L13.5058 26.1391C14.2478 26.0848 14.6189 25.7138 14.6189 25.026V9.6058C14.6189 8.95424 14.2026 8.59226 13.37 8.51987L12.5827 8.43842C12.3837 8.40222 12.2841 8.28458 12.2841 8.08549C12.2841 7.83211 12.4108 7.70542 12.6642 7.70542L16.4107 7.81401H21.4874Z" fill="white"/>
<path d="M35.634 19.352H41.688C41.8871 19.352 41.9504 19.2434 41.878 19.0262L38.6474 10.7189L35.4168 19.0805C35.3625 19.2615 35.4349 19.352 35.634 19.352ZM33.1092 25.026C33.073 25.1346 33.0549 25.2613 33.0549 25.4061C33.0549 25.5328 33.1273 25.6866 33.2721 25.8676C33.4168 26.0305 33.6159 26.121 33.8693 26.1391L34.4666 26.1934C34.7019 26.2296 34.8195 26.3472 34.8195 26.5463C34.8195 26.7997 34.6838 26.9264 34.4123 26.9264L32.0504 26.8178L29.5799 26.9264C29.3265 26.9264 29.1998 26.8087 29.1998 26.5735C29.1998 26.3201 29.2994 26.1934 29.4984 26.1934L30.0143 26.1391C30.7925 26.0486 31.3174 25.6776 31.5889 25.026L38.566 7.84116C38.6384 7.62397 38.8465 7.51538 39.1904 7.51538C39.5523 7.51538 39.7786 7.62397 39.8691 7.84116L46.819 25.026C47.0543 25.6957 47.5701 26.0667 48.3665 26.1391L48.9366 26.1934C49.009 26.1934 49.0723 26.2296 49.1266 26.302C49.1809 26.3744 49.2081 26.4468 49.2081 26.5192C49.2081 26.7906 49.0814 26.9264 48.828 26.9264L45.706 26.8178L42.9097 26.9264C42.6563 26.9264 42.5296 26.8178 42.5296 26.6006C42.5296 26.3472 42.6382 26.2115 42.8554 26.1934L43.4798 26.1391C43.7151 26.121 43.9051 26.0305 44.0499 25.8676C44.2128 25.7047 44.2942 25.5509 44.2942 25.4061C44.2942 25.2613 44.2671 25.1346 44.2128 25.026L42.6111 20.8723C42.5568 20.6913 42.412 20.6008 42.1767 20.6008H35.1453C34.9281 20.6008 34.7833 20.6913 34.7109 20.8723L33.1092 25.026Z" fill="white"/>
<path d="M59.43 7.51538C60.9503 7.51538 62.3258 7.72352 63.5566 8.13979C64.8054 8.55606 65.4298 8.96329 65.4298 9.36146V12.4564C65.4298 12.5831 65.3845 12.7097 65.2941 12.8364C65.2217 12.945 65.1221 12.9993 64.9954 12.9993C64.6877 12.9993 64.4887 12.8183 64.3982 12.4564C64.0724 11.2437 63.4661 10.2936 62.5792 9.6058C61.6924 8.91804 60.6427 8.57416 59.43 8.57416C57.1858 8.57416 55.394 9.32526 54.0547 10.8275C52.7335 12.3297 52.0729 14.2391 52.0729 16.5557C52.0729 18.0761 52.3715 19.5421 52.9687 20.9538C53.566 22.3655 54.4167 23.5328 55.5207 24.4559C56.6428 25.3608 57.8735 25.8133 59.2128 25.8133C60.5703 25.8133 61.7105 25.5418 62.6335 24.9989C63.5747 24.4378 64.0452 23.8496 64.0452 23.2342V19.8678C64.0452 19.1801 63.638 18.8181 62.8236 18.7819L61.3576 18.7005C61.1585 18.7005 61.0589 18.5828 61.0589 18.3475C61.0589 18.0941 61.1766 17.9675 61.4119 17.9675L65.104 18.076L67.7917 17.9675C68.0451 17.9675 68.1718 18.0761 68.1718 18.2932C68.1718 18.5466 68.0632 18.6824 67.846 18.7005L67.3845 18.7819C66.6605 18.9086 66.2985 19.2706 66.2985 19.8678V25.1074L66.4614 26.6278C66.4976 26.9535 66.3619 27.1164 66.0542 27.1164C65.8551 27.1164 65.6922 26.9988 65.5655 26.7635C65.276 26.1119 64.7963 25.7862 64.1267 25.7862C63.9819 25.7862 63.7104 25.8947 63.3122 26.1119C62.0815 26.7816 60.6336 27.1164 58.9685 27.1164C56.1451 27.1164 53.8556 26.1843 52.1 24.3201C50.3444 22.456 49.4666 20.1212 49.4666 17.3159C49.4666 14.4925 50.3897 12.1577 52.2357 10.3117C54.0818 8.44747 56.4799 7.51538 59.43 7.51538Z" fill="white"/>
<path d="M70.365 26.9264C70.1117 26.9264 69.985 26.8178 69.985 26.6006C69.985 26.3653 70.0845 26.2296 70.2836 26.1934L70.7451 26.1391C71.4872 26.0486 71.8582 25.6776 71.8582 25.026V9.6058C71.8582 8.95424 71.4419 8.59226 70.6094 8.51987L69.8221 8.43842C69.623 8.40222 69.5235 8.28458 69.5235 8.08549C69.5235 7.83211 69.6502 7.70542 69.9035 7.70542L72.9713 7.81401L75.659 7.70542C75.9304 7.70542 76.0662 7.81401 76.0662 8.0312C76.0662 8.28458 75.9485 8.42032 75.7133 8.43842L75.2517 8.51987C74.5278 8.64656 74.1658 9.00853 74.1658 9.6058V25.026C74.1658 25.3518 74.2835 25.6142 74.5187 25.8133C74.754 25.9943 75.0436 26.1029 75.3875 26.1391L76.1748 26.1934C76.392 26.1934 76.5006 26.311 76.5006 26.5463C76.5006 26.6549 76.4553 26.7454 76.3648 26.8178C76.2924 26.8902 76.211 26.9264 76.1205 26.9264L73.0527 26.8178L70.365 26.9264Z" fill="white"/>
<path d="M93.9673 22.7727V9.6058C93.9673 8.97234 93.5601 8.61036 92.7456 8.51987L91.9583 8.43842C91.7592 8.40222 91.6597 8.27553 91.6597 8.05835C91.6597 7.84116 91.7864 7.73257 92.0397 7.73257L94.6731 7.81401L96.7907 7.73257C97.0622 7.73257 97.1979 7.84116 97.1979 8.05835C97.1979 8.27553 97.0803 8.40222 96.845 8.43842L96.3835 8.51987C95.6595 8.64656 95.2975 9.00853 95.2975 9.6058V26.7906C95.2975 27.0078 95.198 27.1164 94.9989 27.1164H94.646C94.1935 27.1164 93.8044 26.8992 93.4786 26.4649L82.0492 11.832C82.013 11.7958 81.9587 11.7777 81.8863 11.7777C81.8139 11.7777 81.7777 11.8682 81.7777 12.0491V25.026C81.7777 25.6233 82.1397 25.9852 82.8636 26.1119L83.3252 26.1934C83.5604 26.2296 83.6781 26.3563 83.6781 26.5735C83.6781 26.7906 83.5424 26.8992 83.2709 26.8992L81.1533 26.8178L78.5199 26.8992C78.2665 26.8992 78.1398 26.7906 78.1398 26.5735C78.1398 26.3563 78.2394 26.2296 78.4385 26.1934L79.2258 26.1119C80.0583 26.0214 80.4746 25.6595 80.4746 25.026V9.6058C80.4746 8.97234 80.1126 8.61036 79.3887 8.51987L78.9 8.46557C78.6828 8.42937 78.5742 8.30268 78.5742 8.08549C78.5742 7.85021 78.71 7.73257 78.9814 7.73257L81.1533 7.81401C81.6782 7.83211 82.0763 8.00405 82.3478 8.32983L93.6686 22.8541C93.7229 22.9084 93.7863 22.9356 93.8587 22.9356C93.9311 22.9356 93.9673 22.8813 93.9673 22.7727Z" fill="white"/>
<path d="M109.326 7.51538C110.846 7.51538 112.221 7.72352 113.452 8.13979C114.701 8.55606 115.325 8.96329 115.325 9.36146V12.4564C115.325 12.5831 115.28 12.7097 115.19 12.8364C115.117 12.945 115.018 12.9993 114.891 12.9993C114.583 12.9993 114.384 12.8183 114.294 12.4564C113.968 11.2437 113.362 10.2936 112.475 9.6058C111.588 8.91804 110.538 8.57416 109.326 8.57416C107.081 8.57416 105.29 9.32526 103.95 10.8275C102.629 12.3297 101.968 14.2391 101.968 16.5557C101.968 18.0761 102.267 19.5421 102.864 20.9538C103.462 22.3655 104.312 23.5328 105.416 24.4559C106.538 25.3608 107.769 25.8133 109.108 25.8133C110.466 25.8133 111.606 25.5418 112.529 24.9989C113.47 24.4378 113.941 23.8496 113.941 23.2342V19.8678C113.941 19.1801 113.534 18.8181 112.719 18.7819L111.253 18.7005C111.054 18.7005 110.954 18.5828 110.954 18.3475C110.954 18.0941 111.072 17.9675 111.307 17.9675L115 18.076L117.687 17.9675C117.941 17.9675 118.067 18.0761 118.067 18.2932C118.067 18.5466 117.959 18.6824 117.742 18.7005L117.28 18.7819C116.556 18.9086 116.194 19.2706 116.194 19.8678V25.1074L116.357 26.6278C116.393 26.9535 116.257 27.1164 115.95 27.1164C115.751 27.1164 115.588 26.9988 115.461 26.7635C115.171 26.1119 114.692 25.7862 114.022 25.7862C113.877 25.7862 113.606 25.8947 113.208 26.1119C111.977 26.7816 110.529 27.1164 108.864 27.1164C106.041 27.1164 103.751 26.1843 101.996 24.3201C100.24 22.456 99.3621 20.1212 99.3621 17.3159C99.3621 14.4925 100.285 12.1577 102.131 10.3117C103.977 8.44747 106.375 7.51538 109.326 7.51538Z" fill="white"/>
<path d="M33.4801 59.2269C33.4077 59.4441 33.2177 59.5527 32.91 59.5527C32.6023 59.5527 32.4032 59.4441 32.3127 59.2269L26.4487 42.0421C26.2134 41.3724 25.6976 41.0014 24.9013 40.929L24.3312 40.8747C24.2588 40.8747 24.1954 40.8385 24.1411 40.7661C24.0868 40.6937 24.0597 40.6213 24.0597 40.5489C24.0597 40.2774 24.1864 40.1417 24.4397 40.1417L27.2089 40.2503L30.2223 40.1417C30.4757 40.1417 30.6024 40.2503 30.6024 40.4675C30.6024 40.7208 30.4938 40.8566 30.2766 40.8747L29.6522 40.929C29.3445 40.9471 29.1183 41.0647 28.9735 41.2819C28.8468 41.4991 28.8287 41.7525 28.9192 42.0421L33.3715 55.6433L38.3397 40.4946C38.4121 40.2593 38.6202 40.1417 38.9641 40.1417C39.3079 40.1417 39.5161 40.2593 39.5885 40.4946L44.5295 55.6433L49.0089 42.0421C49.0994 41.7344 49.0723 41.481 48.9275 41.2819C48.8008 41.0647 48.5745 40.9471 48.2488 40.929L47.6515 40.8747C47.4162 40.8385 47.2986 40.7208 47.2986 40.5217C47.2986 40.2684 47.4343 40.1417 47.7058 40.1417L50.0677 40.2503L52.5382 40.1417C52.7916 40.1417 52.9183 40.2684 52.9183 40.5217C52.9183 40.757 52.8187 40.8747 52.6196 40.8747L52.1038 40.929C51.2713 41.0376 50.7464 41.4086 50.5292 42.0421L44.6381 59.2269C44.5657 59.4441 44.3756 59.5527 44.0679 59.5527C43.7603 59.5527 43.5612 59.4441 43.4707 59.2269L38.4754 44.3768L33.4801 59.2269Z" fill="white"/>
<path d="M63.1315 39.9516C65.9911 39.9516 68.2806 40.8656 70 42.6936C71.7375 44.5035 72.6063 46.8382 72.6063 49.6979C72.6063 52.5575 71.7194 54.9194 69.9457 56.7836C68.1902 58.6296 65.9007 59.5527 63.0772 59.5527C60.2719 59.5527 57.9915 58.6296 56.2359 56.7836C54.4803 54.9375 53.6025 52.6027 53.6025 49.7793C53.6025 46.9378 54.4803 44.594 56.2359 42.7479C57.9915 40.8837 60.29 39.9516 63.1315 39.9516ZM68.4797 44.2139C67.9549 43.2909 67.2309 42.5579 66.3079 42.0149C65.3848 41.4719 64.308 41.2005 63.0772 41.2005C60.8692 41.2005 59.1588 41.8792 57.9462 43.2366C56.7517 44.5759 56.1544 46.4039 56.1544 48.7205C56.1544 51.1277 56.6974 53.2814 57.7833 55.1818C58.3082 56.1229 59.0412 56.8831 59.9823 57.4623C60.9235 58.0233 62.0004 58.3039 63.213 58.3039C65.3667 58.3039 67.0409 57.598 68.2354 56.1863C69.448 54.7746 70.0543 52.8742 70.0543 50.4852C70.0543 48.0961 69.5295 46.0057 68.4797 44.2139Z" fill="white"/>
<path d="M79.4152 42.0421V56.7564C79.4152 57.1365 79.5328 57.4442 79.7681 57.6795C80.0215 57.8966 80.3473 58.0052 80.7454 58.0052H84.6819C85.6412 58.0052 86.4647 57.779 87.1524 57.3265C87.8402 56.856 88.3108 56.1772 88.5641 55.2904C88.6546 55.0008 88.8447 54.856 89.1343 54.856C89.4238 54.856 89.5505 55.0189 89.5143 55.3447L89.08 58.1681C89.0438 58.4758 88.9171 58.7382 88.6999 58.9554C88.4827 59.1545 88.2022 59.254 87.8583 59.254H78.2207L75.1529 59.3626C74.8995 59.3626 74.7728 59.245 74.7728 59.0097C74.7728 58.7563 74.8724 58.6296 75.0715 58.6296L75.8588 58.5753C76.2207 58.5391 76.5194 58.4305 76.7546 58.2496C76.9899 58.0505 77.1076 57.788 77.1076 57.4623V42.0421C77.1076 41.3905 76.6913 41.0285 75.8588 40.9561L75.0715 40.8747C74.8724 40.8385 74.7728 40.7208 74.7728 40.5217C74.7728 40.2684 74.8995 40.1417 75.1529 40.1417L78.2207 40.2503L80.9083 40.1417C81.1798 40.1417 81.3156 40.2503 81.3156 40.4675C81.3156 40.7208 81.1979 40.8566 80.9626 40.8747L80.5011 40.9561C79.7772 41.0828 79.4152 41.4448 79.4152 42.0421Z" fill="white"/>
<path d="M105.308 43.8338C105.344 44.1596 105.208 44.3225 104.901 44.3225C104.611 44.3225 104.421 44.1777 104.33 43.8881C104.059 43.0194 103.652 42.404 103.109 42.0421C102.566 41.6801 101.815 41.4991 100.856 41.4991H96.8647C96.4665 41.4991 96.1408 41.6167 95.8874 41.852C95.6521 42.0692 95.5344 42.3769 95.5344 42.7751V48.7477C95.5344 48.983 95.6521 49.1006 95.8874 49.1006H100.665C100.901 49.1006 101.091 49.0463 101.236 48.9377C101.398 48.811 101.498 48.6843 101.534 48.5576C101.589 48.4309 101.661 48.2319 101.751 47.9604L101.86 47.6074C101.914 47.4084 102.032 47.3088 102.213 47.3088C102.466 47.3088 102.593 47.4265 102.593 47.6617L102.484 49.9965L102.593 52.2498C102.593 52.5032 102.475 52.6299 102.24 52.6299C102.023 52.6299 101.896 52.5213 101.86 52.3041L101.779 51.8154C101.706 51.3449 101.589 50.9919 101.426 50.7566C101.281 50.5214 101.027 50.4037 100.665 50.4037H95.8602C95.643 50.4037 95.5344 50.5304 95.5344 50.7838V57.4623C95.5344 58.1319 95.9326 58.5029 96.729 58.5753L97.5434 58.6296C97.7606 58.6296 97.8692 58.7382 97.8692 58.9554C97.8692 59.2269 97.7335 59.3626 97.462 59.3626L94.3399 59.254L91.2722 59.3626C91.0188 59.3626 90.8921 59.245 90.8921 59.0097C90.8921 58.7563 90.9916 58.6296 91.1907 58.6296L91.978 58.5753C92.34 58.5391 92.6386 58.4305 92.8739 58.2496C93.1092 58.0505 93.2269 57.788 93.2269 57.4623V42.0421C93.2269 41.3905 92.8106 41.0285 91.978 40.9561L91.1907 40.8747C90.9916 40.8747 90.8921 40.757 90.8921 40.5217C90.8921 40.2684 91.0188 40.1417 91.2722 40.1417L94.3399 40.2503H103.706C104.05 40.2503 104.33 40.3589 104.548 40.576C104.765 40.7751 104.892 41.0285 104.928 41.3362L105.308 43.8338Z" fill="white"/>
<path d="M17.0211 91.7942C15.9761 91.7942 15.0193 91.6557 14.1505 91.3787C13.2944 91.1018 12.5515 90.6863 11.922 90.1323L12.6208 88.697C13.2755 89.2258 13.9554 89.6098 14.6604 89.849C15.3655 90.0882 16.1587 90.2078 17.04 90.2078C18.0473 90.2078 18.8279 90.019 19.3819 89.6413C19.9358 89.2635 20.2128 88.7284 20.2128 88.036C20.2128 87.4568 19.9547 87.0224 19.4385 86.7329C18.9223 86.4307 18.1039 86.1537 16.9834 85.9019C15.9132 85.6753 15.0381 85.4171 14.3583 85.1276C13.6784 84.8254 13.1433 84.4288 12.753 83.9378C12.3627 83.4341 12.1675 82.792 12.1675 82.0114C12.1675 81.2308 12.3753 80.5446 12.7907 79.9529C13.2062 79.3485 13.7917 78.8827 14.5471 78.5553C15.3151 78.2154 16.1965 78.0454 17.1911 78.0454C18.1354 78.0454 19.0167 78.1902 19.8351 78.4798C20.6661 78.7694 21.3586 79.1786 21.9126 79.7074L21.2138 81.1427C20.5968 80.6265 19.961 80.2487 19.3063 80.0095C18.6516 79.7577 17.9528 79.6318 17.21 79.6318C16.2405 79.6318 15.4788 79.8396 14.9248 80.255C14.3708 80.6579 14.0939 81.2119 14.0939 81.917C14.0939 82.5213 14.3331 82.9809 14.8115 83.2956C15.3025 83.6104 16.0832 83.8937 17.1533 84.1455C18.2739 84.3973 19.1804 84.6617 19.8729 84.9387C20.5654 85.2157 21.1194 85.5934 21.5348 86.0719C21.9503 86.5503 22.1581 87.1672 22.1581 87.9227C22.1581 88.7033 21.9503 89.3832 21.5348 89.9623C21.1194 90.5415 20.5213 90.9947 19.7407 91.3221C18.9727 91.6368 18.0662 91.7942 17.0211 91.7942Z" fill="white"/>
<path d="M30.3509 91.7942C29.0793 91.7942 27.9713 91.5172 27.0271 90.9633C26.0954 90.3967 25.3714 89.5972 24.8552 88.5648C24.3516 87.5323 24.0998 86.3174 24.0998 84.9198C24.0998 83.5097 24.3516 82.2884 24.8552 81.256C25.3588 80.2236 26.0828 79.4304 27.0271 78.8764C27.9713 78.3224 29.0793 78.0454 30.3509 78.0454C31.6352 78.0454 32.7431 78.3224 33.6748 78.8764C34.6191 79.4304 35.3431 80.2236 35.8467 81.256C36.3503 82.2884 36.6021 83.5034 36.6021 84.9009C36.6021 86.3111 36.3503 87.5323 35.8467 88.5648C35.3431 89.5972 34.6191 90.3967 33.6748 90.9633C32.7305 91.5172 31.6226 91.7942 30.3509 91.7942ZM30.3509 90.2078C31.6981 90.2078 32.7431 89.7483 33.486 88.8292C34.2414 87.9101 34.6191 86.6007 34.6191 84.9009C34.6191 83.2138 34.2414 81.917 33.486 81.0105C32.7431 80.0914 31.6981 79.6318 30.3509 79.6318C29.0038 79.6318 27.9587 80.0914 27.2159 81.0105C26.4731 81.917 26.1016 83.2138 26.1016 84.9009C26.1016 86.6007 26.4731 87.9101 27.2159 88.8292C27.9713 89.7483 29.0163 90.2078 30.3509 90.2078Z" fill="white"/>
<path d="M39.2895 78.1965H41.2347V90.019H47.7692V91.6431H39.2895V78.1965Z" fill="white"/>
<path d="M54.5574 91.7942C52.7696 91.7942 51.4098 91.3284 50.4781 90.3967C49.559 89.465 49.0995 88.0989 49.0995 86.2985V78.1965H51.0069V86.4307C51.0069 87.6771 51.3028 88.6214 51.8946 89.2635C52.4989 89.8931 53.3865 90.2078 54.5574 90.2078C55.7158 90.2078 56.5908 89.8868 57.1826 89.2447C57.7869 88.6025 58.0891 87.6645 58.0891 86.4307V78.1965H60.0154V86.2985C60.0154 88.0989 59.5496 89.465 58.6179 90.3967C57.6988 91.3284 56.3453 91.7942 54.5574 91.7942Z" fill="white"/>
<path d="M66.2732 79.8207H61.7218V78.1965H72.7888V79.8207H68.2374V91.6431H66.2732V79.8207Z" fill="white"/>
<path d="M74.5896 78.1965H76.5348V91.6431H74.5896V78.1965Z" fill="white"/>
<path d="M85.4405 91.7942C84.1689 91.7942 83.0609 91.5172 82.1166 90.9633C81.1849 90.3967 80.461 89.5972 79.9447 88.5648C79.4411 87.5323 79.1893 86.3174 79.1893 84.9198C79.1893 83.5097 79.4411 82.2884 79.9447 81.256C80.4484 80.2236 81.1723 79.4304 82.1166 78.8764C83.0609 78.3224 84.1689 78.0454 85.4405 78.0454C86.7247 78.0454 87.8327 78.3224 88.7644 78.8764C89.7087 79.4304 90.4326 80.2236 90.9362 81.256C91.4399 82.2884 91.6917 83.5034 91.6917 84.9009C91.6917 86.3111 91.4399 87.5323 90.9362 88.5648C90.4326 89.5972 89.7087 90.3967 88.7644 90.9633C87.8201 91.5172 86.7121 91.7942 85.4405 91.7942ZM85.4405 90.2078C86.7877 90.2078 87.8327 89.7483 88.5755 88.8292C89.331 87.9101 89.7087 86.6007 89.7087 84.9009C89.7087 83.2138 89.331 81.917 88.5755 81.0105C87.8327 80.0914 86.7877 79.6318 85.4405 79.6318C84.0933 79.6318 83.0483 80.0914 82.3055 81.0105C81.5626 81.917 81.1912 83.2138 81.1912 84.9009C81.1912 86.6007 81.5626 87.9101 82.3055 88.8292C83.0609 89.7483 84.1059 90.2078 85.4405 90.2078Z" fill="white"/>
<path d="M105.408 78.1965V91.6431H103.916L96.211 81.4826V91.6431H94.3791V78.1965H95.8521L103.576 88.3759V78.1965H105.408Z" fill="white"/>
<path d="M112.944 91.7942C111.899 91.7942 110.942 91.6557 110.073 91.3787C109.217 91.1018 108.474 90.6863 107.845 90.1323L108.543 88.697C109.198 89.2258 109.878 89.6098 110.583 89.849C111.288 90.0882 112.081 90.2078 112.963 90.2078C113.97 90.2078 114.75 90.019 115.304 89.6413C115.858 89.2635 116.135 88.7284 116.135 88.036C116.135 87.4568 115.877 87.0224 115.361 86.7329C114.845 86.4307 114.027 86.1537 112.906 85.9019C111.836 85.6753 110.961 85.4171 110.281 85.1276C109.601 84.8254 109.066 84.4288 108.676 83.9378C108.285 83.4341 108.09 82.792 108.09 82.0114C108.09 81.2308 108.298 80.5446 108.713 79.9529C109.129 79.3485 109.714 78.8827 110.47 78.5553C111.238 78.2154 112.119 78.0454 113.114 78.0454C114.058 78.0454 114.939 78.1902 115.758 78.4798C116.589 78.7694 117.281 79.1786 117.835 79.7074L117.136 81.1427C116.519 80.6265 115.884 80.2487 115.229 80.0095C114.574 79.7577 113.875 79.6318 113.133 79.6318C112.163 79.6318 111.401 79.8396 110.847 80.255C110.293 80.6579 110.016 81.2119 110.016 81.917C110.016 82.5213 110.256 82.9809 110.734 83.2956C111.225 83.6104 112.006 83.8937 113.076 84.1455C114.197 84.3973 115.103 84.6617 115.796 84.9387C116.488 85.2157 117.042 85.5934 117.457 86.0719C117.873 86.5503 118.081 87.1672 118.081 87.9227C118.081 88.7033 117.873 89.3832 117.457 89.9623C117.042 90.5415 116.444 90.9947 115.663 91.3221C114.895 91.6368 113.989 91.7942 112.944 91.7942Z" fill="white"/>
</svg>
