<svg width="601" height="447" viewBox="0 0 601 447" fill="none" xmlns="http://www.w3.org/2000/svg">
<g clip-path="url(#clip0)">
<path d="M553.68 108.518C485.468 13.5981 341.373 -24.9057 199.66 16.5638C124.74 38.4875 52.5042 82.4149 16.7057 167.472C-47.288 319.522 87.0748 368.083 174.933 383.56C217.417 391.044 257.429 403.615 293.993 420.73C359.775 451.523 476.212 478.809 564.014 350.543C627.653 257.576 599.117 171.745 553.68 108.518Z" fill="#F2F2F2"/>
<path d="M158.208 127.298C158.017 125.789 157.631 124.312 157.06 122.903C156.987 122.636 156.86 122.388 156.686 122.173C156.511 121.959 156.295 121.783 156.049 121.657C155.72 121.572 155.376 121.568 155.045 121.646L149.893 122.434C149.461 122.454 149.048 122.614 148.717 122.891C148.046 123.597 148.707 124.733 148.686 125.707C148.663 126.802 147.69 127.691 146.635 127.985C145.559 128.202 144.448 128.188 143.377 127.944L136.172 126.825C138.294 126.147 140.183 124.887 141.622 123.187C142.571 122.064 143.075 119.967 141.705 119.435C141.298 119.324 140.873 119.289 140.453 119.335C137.189 119.36 134.62 116.635 131.565 115.487C129.609 114.8 127.486 114.749 125.499 115.341C123.512 115.933 121.764 117.138 120.504 118.784L124.342 118.969C124.703 118.949 125.061 119.045 125.364 119.242C126.205 119.933 125.159 121.26 125.278 122.343C125.432 123.749 127.299 124.049 128.706 124.191C130.113 124.333 131.898 125.476 131.221 126.718C124.148 129.154 116.951 121.956 109.523 122.842C107.643 123.066 105.868 123.805 104.033 124.269C92.8205 127.106 81.229 119.537 69.7751 121.14C67.2287 121.574 64.7261 122.234 62.2969 123.112C60.738 123.624 59.112 124.177 57.9793 125.365C56.8466 126.552 56.4155 128.582 57.4885 129.823C54.531 130.067 51.5536 129.784 48.6949 128.987C49.4679 129.417 50.111 130.047 50.5567 130.811C51.0024 131.575 51.2342 132.445 51.2277 133.329C46.6098 134.082 42.1142 135.453 37.8617 137.404C38.6554 138.724 39.5824 139.959 40.6282 141.09L34.782 144.846C36.7571 145.343 37.7783 148.036 36.6297 149.718C38.6777 148.807 39.9469 146.451 42.1369 145.973C43.5716 145.66 45.0314 146.247 46.3925 146.798C47.7535 147.349 49.2495 147.884 50.6584 147.47C52.0674 147.056 53.1067 145.229 52.2114 144.065C58.2337 142.308 64.4576 141.336 70.7289 141.172C71.2128 141.111 71.7034 141.205 72.1314 141.438C72.9477 142.005 72.7329 143.228 72.689 144.221C72.645 145.213 73.4186 146.518 74.3058 146.07C73.2621 146.976 74.1543 148.679 75.1557 149.631C76.1571 150.583 77.364 151.896 76.7509 153.134C76.5909 153.457 76.3195 153.716 76.1656 154.042C75.7112 155.004 76.4327 156.126 77.2837 156.765C78.1348 157.405 79.1772 157.851 79.7683 158.736C80.3595 159.621 80.0911 161.17 79.0339 161.294L76.0293 157.479C75.0027 158.544 74.299 159.877 73.9996 161.325C77.1858 163.93 77.665 169.232 74.9976 172.365C73.6344 173.967 71.696 174.94 70.0041 176.189C68.3122 177.438 66.7467 179.217 66.7509 181.32C66.7583 184.953 66.4614 188.329 67.8229 191.697C70.3335 197.909 73.2321 203.956 76.5015 209.804C77.36 211.339 78.4696 213.022 80.2089 213.287C78.0108 207.935 76.0321 202.501 74.2728 196.983C75.4187 196.988 76.7429 197.079 77.4146 198.007C77.9709 198.776 77.8514 199.821 78.0242 200.754C78.2441 201.658 78.6107 202.52 79.1094 203.305L89.6059 222.003C90.476 223.553 91.4741 225.216 93.1372 225.844C94.2004 226.245 95.4305 226.17 96.4092 226.748C97.1763 227.2 97.6929 228.004 98.4749 228.431C100.686 229.637 103.761 227.324 105.827 228.764C106.418 229.176 106.794 229.83 107.338 230.301C109.247 231.954 112.378 230.849 114.581 232.081C116.001 232.876 116.736 234.465 117.494 235.905C119.391 239.512 122.46 243.046 126.526 243.334C127.803 243.424 129.107 243.182 130.356 243.466C131.604 243.75 132.833 244.839 132.632 246.104C132.289 248.272 133.36 250.645 133.072 252.821C132.548 256.785 126.926 258.526 126.444 262.495C126.338 263.364 126.503 264.261 126.296 265.112C126.043 266.154 125.26 267.003 124.982 268.039C124.455 270.002 125.861 271.957 127.407 273.278C128.952 274.599 130.796 275.738 131.641 277.587C132.534 279.542 132.095 281.821 132.386 283.95C133.02 288.598 137.035 292.044 141.166 294.266C142.425 294.943 143.777 295.599 144.592 296.773C145.655 298.306 145.549 300.327 145.905 302.158C146.774 306.644 150.55 310.34 150.658 314.907C150.734 318.154 148.929 321.1 147.851 324.163C146.84 327.098 146.475 330.216 146.779 333.306C147.083 336.395 148.05 339.382 149.614 342.064C150.42 343.426 151.385 344.71 151.955 346.186C152.973 348.82 152.643 351.815 153.581 354.479C154.822 358 158.233 360.909 157.906 364.629C159.454 367.844 162.873 369.424 166.311 370.38L172.471 372.095C173.651 372.424 174.884 372.755 176.085 372.517C177.286 372.279 178.433 371.282 178.402 370.058C175.38 369.376 172.262 368.652 169.772 366.811C167.281 364.97 165.575 361.691 166.52 358.742C166.958 357.374 167.89 355.795 167.004 354.665C166.497 354.018 165.569 353.849 164.997 353.258C164.104 352.337 164.411 350.791 165.052 349.68C165.694 348.57 166.622 347.578 166.881 346.322C167.011 345.619 166.924 344.893 166.63 344.241C166.337 343.59 165.851 343.043 165.238 342.676C166.38 342.244 167.419 341.578 168.287 340.719C169.089 339.803 169.46 338.391 168.829 337.35C170.702 337.588 172.914 337.704 174.144 336.271C175.126 335.127 175.058 333.416 174.67 331.959C174.282 330.502 173.626 329.086 173.606 327.579C177.927 327.783 182.258 327.636 186.556 327.139C185.935 325.046 184.522 323.278 182.619 322.208C184.565 321.879 186.338 319.549 186.953 317.673C187.568 315.797 187.411 313.754 187.031 311.817C186.885 311.318 186.865 310.791 186.973 310.282C187.192 309.584 187.879 309.158 188.513 308.793L198.175 303.245C198.751 302.956 199.274 302.57 199.72 302.104C200.732 300.915 200.582 299.12 200.064 297.647C199.545 296.174 198.715 294.789 198.516 293.241C197.918 288.609 202.876 285.286 204.55 280.926C205.206 279.215 205.34 277.355 205.467 275.527C205.604 273.563 205.614 271.282 204.106 270.017C202.661 268.804 200.403 269.075 198.89 267.946C197.504 266.912 197.025 264.903 195.511 264.067C194.135 263.308 192.41 263.791 190.881 263.434C188.187 262.806 186.492 259.701 183.741 259.414C182.188 259.252 180.432 260.01 179.159 259.106C178.038 258.31 177.994 256.709 177.78 255.35C177.406 253.239 176.394 251.293 174.88 249.775C173.367 248.256 171.424 247.238 169.314 246.857C167.714 246.6 165.972 246.698 164.61 245.818C163.231 244.928 162.599 243.26 161.516 242.027C159.771 240.039 157.022 239.333 154.447 238.728L143.973 236.265C142.114 235.828 139.717 235.597 138.719 237.225C138.424 237.845 138.215 238.503 138.098 239.18C137.724 240.404 136.972 241.479 135.949 242.248C134.926 243.018 133.685 243.444 132.405 243.465C131.528 241.967 130.105 240.867 128.436 240.393C127.374 240.097 126.237 240.064 125.224 239.629C124.672 239.359 124.181 238.98 123.781 238.515C123.381 238.049 123.08 237.507 122.897 236.921C122.714 236.335 122.652 235.718 122.715 235.108C122.779 234.497 122.966 233.906 123.266 233.37C123.87 232.295 124.103 231.051 123.93 229.83C123.757 228.609 123.186 227.479 122.307 226.615C120.525 225.016 117.949 224.629 115.56 224.789C114.935 223.424 115.981 221.885 117.108 220.893C118.235 219.901 119.604 218.926 119.849 217.444C120.235 215.114 117.262 213.345 115.005 214.039C112.748 214.734 111.307 216.927 110.355 219.088C109.808 220.328 109.344 221.634 108.482 222.679C107.62 223.725 106.232 224.473 104.919 224.138C103.06 223.663 102.343 221.455 101.931 219.581C101.379 217.067 100.824 214.518 100.94 211.947C101.055 209.375 101.922 206.735 103.818 204.995C106.908 202.158 111.648 202.436 115.817 202.889C114.832 201.779 115.076 199.908 116.13 198.863C116.686 198.369 117.355 198.018 118.078 197.84C118.801 197.663 119.556 197.664 120.278 197.844C121.534 198.106 122.666 198.783 123.491 199.766C124.676 201.21 125.013 203.161 125.909 204.801C126.805 206.441 128.818 207.839 130.467 206.959C131.891 206.2 132.117 204.225 131.762 202.651C131.408 201.076 130.655 199.545 130.784 197.937C131.029 194.867 134.211 193.019 137.019 191.755C139.827 190.491 143.042 188.791 143.487 185.744C143.502 185.147 143.614 184.557 143.82 183.997C144.131 183.502 144.564 183.095 145.077 182.814C153.272 177.398 161.604 171.916 170.97 168.957C171.458 168.803 171.515 168.974 172.011 168.854C172.706 168.452 172.246 167.341 171.579 166.893C170.913 166.445 170.022 166.102 169.853 165.317C169.729 164.74 170.069 164.174 170.157 163.59C170.374 162.157 168.659 160.833 167.327 161.406C166.575 160.41 168.063 159.252 169.267 158.92C172.882 157.925 176.593 157.319 180.336 157.112C180.768 157.043 181.211 157.119 181.596 157.326C182.224 157.762 182.144 158.761 181.699 159.382C181.253 160.004 180.56 160.394 180.005 160.92C179.398 161.511 178.965 162.258 178.754 163.078C178.542 163.898 178.56 164.761 178.805 165.571C180.759 166.565 182.884 167.589 185.049 167.238C187.213 166.888 189.134 164.456 188.117 162.514C187.169 160.705 184.323 160.297 183.834 158.315C183.261 155.994 186.547 153.93 185.807 151.657C185.482 150.661 184.49 150.075 183.729 149.356C182.829 148.475 182.218 147.342 181.974 146.107C181.73 144.871 181.865 143.591 182.362 142.434C181.122 142.652 179.848 142.57 178.646 142.194C177.444 141.818 176.35 141.159 175.455 140.273C173.803 138.605 172.485 135.975 170.139 136.05C167.986 136.118 166.132 138.63 164.119 137.864C163.623 137.675 163.101 137.291 162.621 137.516C162.464 137.618 162.332 137.755 162.235 137.915C162.139 138.076 162.08 138.256 162.063 138.443C161.551 140.889 162.431 143.676 161.098 145.789C159.648 148.089 156.292 148.408 154.534 150.482C153.579 151.608 153.209 153.125 152.332 154.312C151.454 155.499 149.592 156.253 148.539 155.219C149.056 154.155 149.198 152.947 148.94 151.792C148.682 150.638 148.04 149.605 147.119 148.862C146.141 148.224 145.087 147.712 143.982 147.336C142.747 146.814 141.572 146.159 140.477 145.383C139.929 145.053 139.484 144.576 139.191 144.007C138.959 143.294 138.99 142.522 139.279 141.83C139.813 140.299 140.755 138.943 142.003 137.908C143.251 136.874 144.759 136.2 146.362 135.959C147.764 135.768 149.396 135.836 150.324 134.767C150.815 134.202 151.072 133.347 151.785 133.118C152.241 133.026 152.714 133.085 153.134 133.284L158.367 135.126C158.951 135.39 159.594 135.496 160.232 135.434C160.548 135.392 160.836 135.231 161.039 134.985C161.241 134.738 161.344 134.425 161.324 134.106C161.157 133.237 159.82 132.82 159.942 131.943C160.01 131.659 160.163 131.403 160.38 131.207C162.268 129.197 164.578 127.629 167.143 126.616C169.709 125.603 172.466 125.17 175.219 125.347C175.879 126.432 174.835 127.717 173.965 128.643C173.096 129.569 172.398 131.223 173.449 131.936C173.88 132.156 174.359 132.264 174.842 132.25C176.131 132.425 177.383 132.804 178.551 133.375C180.359 134.162 182.133 135.023 183.872 135.958C183.718 134.812 183.572 133.604 184.006 132.532C184.441 131.46 185.676 130.619 186.755 131.036C187.795 131.439 188.328 132.815 189.436 132.941C190.913 133.11 191.496 130.927 190.879 129.574C190.262 128.221 189.04 127.088 188.938 125.604C188.869 124.603 189.25 123.362 188.451 122.756C188.166 122.574 187.843 122.46 187.507 122.425L167.544 118.751C166.358 118.533 164.645 118.7 164.593 119.904C164.563 120.577 165.164 121.242 164.898 121.86C164.614 122.519 163.682 122.459 163.002 122.692C161.949 123.054 161.42 124.306 161.521 125.415C161.706 126.518 162.133 127.566 162.771 128.484C161.473 127.941 159.507 127.841 158.208 127.298Z" fill="#3F3D56"/>
<path d="M142.279 110.351C141.02 109.935 139.664 109.915 138.393 110.296C137.123 110.676 136.001 111.438 135.178 112.478C134.849 112.911 134.573 113.507 134.848 113.976C135.243 114.648 136.248 114.383 136.989 114.142C138.079 113.753 139.264 113.725 140.371 114.062C141.067 114.301 141.69 114.723 142.389 114.953C142.729 115.095 143.102 115.142 143.467 115.089C143.831 115.035 144.175 114.884 144.46 114.65C144.94 114.161 144.97 113.4 144.971 112.715C145.004 112.486 144.986 112.252 144.917 112.03C144.849 111.809 144.732 111.606 144.574 111.436C144.295 111.274 143.98 111.181 143.657 111.164C142.934 111.031 142.28 110.649 141.809 110.084" fill="#3F3D56"/>
<path d="M149.478 108.347C149.196 108.332 148.915 108.389 148.662 108.514C148.409 108.638 148.192 108.826 148.032 109.059C147.873 109.291 147.776 109.561 147.75 109.842C147.725 110.123 147.773 110.406 147.888 110.663C148.754 110.899 149.657 110.958 150.546 110.836C150.989 110.768 151.402 110.569 151.733 110.266C152.063 109.963 152.297 109.569 152.404 109.133C151.357 109.324 150.278 109.118 149.376 108.555" fill="#3F3D56"/>
<path d="M173.629 105C171.275 105.5 168.987 106.277 166.814 107.315C167.839 107.708 168.709 108.421 169.298 109.347C169.887 110.273 170.163 111.363 170.085 112.458C169.993 112.878 170.003 113.314 170.116 113.729C170.366 114.336 171.091 114.564 171.729 114.719C172.875 115.068 174.071 115.221 175.267 115.171C175.866 115.14 176.447 114.96 176.958 114.647C177.47 114.335 177.895 113.9 178.196 113.381C178.369 112.889 178.573 112.409 178.805 111.942C180.333 109.614 184.874 112.428 186.515 110.179C187.093 109.386 187.04 108.193 187.794 107.565C188.183 107.292 188.635 107.119 189.108 107.064C192.408 106.408 195.741 105.933 199.093 105.641C200.681 105.503 202.751 104.933 202.765 103.339C196.783 102.164 190.58 102.999 185.121 105.712C183.155 106.698 180.553 108.77 178.659 107.464C177.949 106.975 177.985 105.658 177.008 105.108C176.01 104.546 174.689 104.775 173.629 105Z" fill="#3F3D56"/>
<path d="M193.192 108.658L196 109.198C195.484 109.175 194.968 109.262 194.487 109.455C194.007 109.647 193.573 109.939 193.215 110.313C192.856 110.686 192.582 111.131 192.409 111.619C192.237 112.107 192.17 112.626 192.214 113.141C194.843 114.019 197.71 113.165 200.48 113.281C203.25 113.398 206.473 115.377 206 118.109C205.857 118.935 205.38 119.76 205.628 120.561C205.802 121.122 206.297 121.52 206.577 122.037C207.159 123.114 206.693 124.477 205.958 125.456C205.223 126.435 204.235 127.216 203.59 128.257C201.985 130.845 202.897 134.19 203.853 137.082C204.129 138.174 204.64 139.193 205.349 140.069C206.765 141.575 209.073 141.706 211.14 141.736C212.645 141.758 214.368 141.684 215.32 140.518C216.562 138.996 215.693 136.622 216.511 134.836C217.254 133.214 219.146 132.518 220.861 132.024C224.002 131.12 227.202 130.351 230.172 128.985C233.859 127.289 237.305 124.646 241.358 124.428C242.495 124.367 243.66 124.501 244.755 124.189C245.85 123.878 246.891 122.931 246.808 121.795C246.737 120.825 245.916 120.113 245.275 119.381C244.633 118.65 244.129 117.525 244.719 116.751L255.342 114.767C254.589 112.715 254.002 110.012 255.732 108.677C256.357 108.195 257.192 108.002 257.724 107.419C258.63 106.426 258.174 104.716 257.129 103.871C256.083 103.027 254.669 102.831 253.329 102.719C248.671 102.333 243.987 102.588 239.32 102.844C230.197 103.344 221.075 103.844 211.952 104.344C210.116 104.445 207.995 104.291 206.311 104.918C204.885 105.448 203.871 106.422 202.24 106.764C199.23 107.395 195.917 106.968 193.192 108.658Z" fill="#3F3D56"/>
<path d="M243.498 130.854C243.211 130.808 242.919 130.875 242.68 131.039C242.522 131.213 242.429 131.435 242.414 131.669C242.233 132.703 242.449 133.767 243.019 134.648C243.309 135.081 243.71 135.427 244.179 135.653C244.649 135.878 245.17 135.973 245.689 135.929C246.953 135.767 247.885 134.689 249.048 134.162C250.839 133.352 258.448 132.088 253.185 129.245C251.371 128.265 250.199 129.13 248.769 129.775C247.143 130.607 245.32 130.98 243.498 130.854Z" fill="#3F3D56"/>
<path d="M289.596 107.053C288.982 107.304 288.468 107.751 288.134 108.326C287.981 108.617 287.945 108.956 288.035 109.274C288.124 109.591 288.332 109.861 288.616 110.029C288.845 110.112 289.089 110.151 289.333 110.143L291.831 110.217C292.893 110.249 294.219 110.475 294.504 111.498C294.716 112.258 294.242 113.234 294.814 113.777C295.06 113.967 295.355 114.082 295.664 114.108C296.487 114.32 297.347 114.348 298.182 114.19C300 113.702 299.045 112.592 299.617 111.604C300.494 110.092 300.342 111.007 301.886 110.141C303.026 109.501 304.499 108.34 303.547 106.709C301.893 103.873 292.038 105.834 289.596 107.053Z" fill="#3F3D56"/>
<path d="M338.918 105.627L337.467 105.821C334.195 106.257 330.904 106.698 327.753 107.68C329.117 108.22 330.548 108.571 332.007 108.724C332.81 108.764 333.608 108.877 334.39 109.063C335.782 109.477 337.184 110.547 338.529 109.999C339.363 109.659 339.635 108.791 340.326 108.331C340.803 108.014 342.612 107.499 342.814 107.179C344.449 104.586 340.174 105.459 338.918 105.627Z" fill="#3F3D56"/>
<path d="M345.289 112.222C343.351 113.306 341.553 114.622 339.934 116.143C339.253 116.784 338.556 117.581 338.618 118.515C338.7 119.756 340.022 120.475 341.167 120.96L345.806 122.924C346.369 122.131 345.854 121.036 345.272 120.257C344.691 119.477 343.999 118.576 344.256 117.638C344.55 116.567 345.855 116.203 346.949 116.018C348.732 115.718 353.542 115.742 352.964 112.868C352.283 109.483 347.079 111.221 345.289 112.222Z" fill="#3F3D56"/>
<path d="M344.356 303.833C343.915 305.112 343.873 306.618 344.637 307.734C345.494 308.986 347.209 309.453 348.693 309.136C350.171 308.742 351.489 307.895 352.46 306.714C353.348 305.724 354.078 304.604 354.626 303.392C355.39 301.503 355.929 299.531 356.232 297.517L357.672 289.955C357.994 288.265 357.981 283.084 354.875 284.772C354.027 285.233 352.062 288.874 351.173 289.907C349.57 291.768 349.358 293.573 348.514 295.828C347.457 298.651 345.333 301.005 344.356 303.833Z" fill="#3F3D56"/>
<path d="M508.413 342.529C507.397 342.133 506.41 341.663 505.462 341.124C504.51 343.74 504.004 346.496 503.965 349.279L510.92 345.344C511.967 344.752 513.153 343.929 513.13 342.727C513.139 342.579 513.109 342.43 513.041 342.298C512.973 342.165 512.871 342.054 512.745 341.974C512.591 341.912 512.423 341.893 512.258 341.917C511.227 342.003 510.286 342.511 509.313 342.863C508.34 343.216 507.203 343.403 506.31 342.879" fill="#3F3D56"/>
<path d="M545.102 344.866C544.339 345.074 543.593 345.341 542.872 345.666C541.276 346.478 540.19 348.021 538.754 349.09C537.379 350.114 535.725 350.676 534.101 351.222C533.623 351.645 533.843 352.495 534.361 352.866C534.919 353.183 535.558 353.327 536.198 353.279C537.885 353.316 539.663 353.332 541.141 352.517C541.974 351.977 542.753 351.359 543.468 350.67C545.196 349.229 547.271 348.277 549.325 347.358C550.073 347.076 550.764 346.662 551.367 346.137C552.658 344.865 552.748 342.903 550.887 342.471C549.383 342.121 546.534 344.403 545.102 344.866Z" fill="#3F3D56"/>
<path d="M561.312 334.277C561.396 333.402 561.279 332.519 560.972 331.696C560.664 330.872 560.174 330.129 559.537 329.523C559.518 331.274 559.465 333.139 558.48 334.587C557.779 335.619 556.679 336.315 555.91 337.298C555.141 338.281 554.8 339.838 555.702 340.7C556.278 341.139 556.98 341.381 557.704 341.39C559.499 341.601 561.576 341.719 562.835 340.422C563.522 339.715 563.856 338.666 564.694 338.146C565.006 338.015 565.285 337.816 565.51 337.562C565.856 337.012 565.306 336.287 564.687 336.089C564.069 335.891 563.387 335.984 562.765 335.796C562.143 335.608 561.572 334.908 561.891 334.342" fill="#3F3D56"/>
<path d="M532.501 270.085C531.559 270.314 530.584 270.372 529.622 270.255C528.025 269.961 526.781 268.757 525.491 267.769C522.424 265.435 518.697 264.132 514.843 264.049C511.338 263.983 507.8 264.933 504.357 264.27C504.582 265.521 505.653 266.46 506.795 267.017C507.937 267.575 509.198 267.856 510.345 268.402C512.184 269.286 513.641 270.802 514.452 272.674C514.821 273.537 515.054 274.476 515.614 275.229C516.758 276.769 518.928 277.107 520.842 276.981C523.338 276.817 525.945 276.099 528.267 277.029C530.044 277.741 531.315 279.296 532.799 280.505C534.282 281.714 536.371 282.611 538.074 281.739C536.305 281.166 534.765 280.042 533.68 278.533C532.594 277.023 532.02 275.206 532.04 273.346C533.71 273.5 538.522 273.44 538.263 270.602C538.043 268.196 533.935 269.826 532.501 270.085Z" fill="#3F3D56"/>
<path d="M510.648 289.657C510.945 288.031 512.567 286.594 512.062 285.019C511.712 283.931 510.45 283.393 509.306 283.366C508.163 283.339 507.04 283.68 505.897 283.712C505.153 283.672 504.407 283.683 503.664 283.744C501.395 284.117 499.996 286.495 497.858 287.341C496.558 287.855 495.097 287.757 493.745 288.112C490.675 288.919 488.732 291.82 486.586 294.159C483.119 297.921 478.602 300.555 473.62 301.72C471.875 302.124 469.999 302.383 468.611 303.517C466.774 305.018 466.322 307.591 465.913 309.928C464.784 316.383 463.058 322.718 460.758 328.854L468.047 329.784C469.433 329.961 470.869 330.134 472.204 329.724C473.174 329.358 474.093 328.868 474.939 328.267C478.185 326.252 481.818 324.94 485.604 324.418C487.512 324.156 489.514 324.108 491.305 324.817C493.096 325.527 494.633 327.136 494.783 329.056C495.558 328.815 496.383 328.789 497.172 328.981C497.96 329.173 498.681 329.575 499.259 330.145C500.4 331.308 501.148 332.8 501.396 334.411C501.588 335.408 501.78 336.603 502.705 337.021C503.46 337.362 504.326 336.995 505.152 336.929C507.955 336.704 510.28 339.972 513.035 339.41C515.989 338.806 516.714 334.382 519.596 333.495C521.251 332.986 523.573 333.605 524.366 332.066C525.064 330.709 523.67 329.143 523.814 327.623C523.991 325.752 526.198 324.958 527.9 324.159C533.766 321.407 536.549 313.512 533.707 307.689C532.023 304.239 528.709 301.523 528.097 297.733C527.626 294.817 528.776 291.417 526.916 289.122C525.971 287.954 524.369 287.309 523.806 285.916C523.452 285.039 523.595 284.044 523.404 283.118C523.213 282.191 522.405 281.222 521.49 281.463C518.835 282.16 517.987 290.363 516.566 292.356C514.404 295.386 509.967 293.39 510.648 289.657Z" fill="#3F3D56"/>
<path d="M461.564 273.185C460.656 272.931 459.665 272.68 458.796 273.044C457.926 273.407 457.419 274.684 458.116 275.317C463.576 275.105 469.069 274.893 474.482 275.635C480.719 276.489 486.891 278.605 493.156 277.982C489.577 276.927 485.94 276.083 482.263 275.455L476.13 274.283C474.485 273.939 472.823 273.682 471.15 273.514C467.652 273.225 465.004 274.15 461.564 273.185Z" fill="#3F3D56"/>
<path d="M467.029 254.17C466.576 254.132 466.015 254.1 465.78 254.49C465.556 254.862 465.813 255.354 465.692 255.771C465.528 256.342 464.781 256.487 464.192 256.41C463.603 256.332 462.967 256.146 462.445 256.43C462.181 256.611 461.982 256.872 461.879 257.175C461.776 257.478 461.774 257.807 461.873 258.111C462.086 258.716 462.431 259.265 462.883 259.721C463.654 260.692 464.532 261.574 465.502 262.348C467.378 263.733 469.92 264.4 471.102 266.411C471.269 266.801 471.525 267.145 471.85 267.418C472.418 267.777 473.158 267.504 473.768 267.224L475.91 266.246C476.295 266.107 476.64 265.873 476.911 265.565C477.4 264.901 477.099 263.958 476.689 263.243C476.278 262.528 475.753 261.788 475.841 260.968C475.998 259.506 477.877 258.947 478.65 257.696C479.429 256.436 478.922 254.811 479.012 253.332C479.117 251.602 480.204 249.352 478.455 248.059C476.969 246.961 475.548 247.976 474.481 249.189C472.23 251.746 471.166 254.516 467.029 254.17Z" fill="#3F3D56"/>
<path d="M480.027 228.323C480.758 229.722 482.282 230.558 483.079 231.921C483.943 233.398 483.845 235.307 484.782 236.739C485.744 238.209 487.679 238.989 488.219 240.66C488.807 242.484 487.471 244.702 488.536 246.296C488.735 246.557 488.986 246.773 489.272 246.932C489.559 247.091 489.875 247.188 490.202 247.218C490.528 247.248 490.857 247.21 491.168 247.106C491.478 247.002 491.764 246.835 492.007 246.615C492.456 246.126 492.696 245.481 492.677 244.818C492.657 244.154 492.379 243.525 491.902 243.063C491.271 242.488 490.366 242.24 489.839 241.568C489.565 241.181 489.383 240.736 489.305 240.268C489.018 238.917 489.064 237.516 489.439 236.187C489.58 235.85 489.616 235.478 489.542 235.12C489.305 234.431 488.372 234.382 487.717 234.062C486.23 233.336 486.266 231.238 486.526 229.604C486.353 230.692 482.478 228.841 482.072 228.225C481.266 227.001 481.704 224.639 481.545 223.286C479.804 224.125 479.133 226.611 480.027 228.323Z" fill="#3F3D56"/>
<path d="M440.983 249.859C440.268 249.058 439.191 248.22 438.232 248.703C437.5 249.071 437.299 250.084 437.586 250.851C437.935 251.596 438.473 252.238 439.146 252.711C441.144 254.36 443.296 255.847 445.04 257.763C448.16 261.192 449.813 265.819 453.206 268.977C453.888 269.71 454.791 270.198 455.777 270.369C456.766 270.461 457.876 269.828 457.99 268.842C458.083 268.029 457.517 267.302 456.963 266.7C455.645 265.266 454.202 263.946 452.958 262.448C452.383 261.873 452.022 261.119 451.934 260.31C451.928 259.503 452.663 258.659 453.445 258.859C452.494 258.616 451.789 257.032 450.394 256.735C449.229 256.486 448.947 257.208 447.559 256.613C444.913 255.478 442.837 251.933 440.983 249.859Z" fill="#3F3D56"/>
<path d="M503.164 171.888C502.405 171.663 501.658 171.396 500.928 171.09C498.963 170.5 496.363 171.944 496.625 173.979C496.799 175.33 498.058 176.242 498.752 177.414C499.783 179.153 499.508 181.359 498.967 183.306C498.834 183.909 498.581 184.479 498.223 184.983C497.723 185.514 497.125 185.944 496.462 186.249C493.809 187.737 491.469 189.725 489.572 192.103C489.365 192.323 489.222 192.594 489.156 192.888C489.062 193.574 489.752 194.075 490.143 194.648C491.01 195.921 490.383 197.633 490.469 199.171C490.456 199.388 490.498 199.606 490.593 199.802C490.687 199.998 490.83 200.167 491.008 200.293C491.531 200.558 492.15 200.107 492.433 199.594C493.373 197.891 492.665 195.157 494.429 194.335C494.763 194.18 495.167 194.115 495.39 193.822C495.743 193.357 495.402 192.668 495.581 192.112C495.85 191.278 496.991 191.241 497.867 191.278C499.375 191.341 500.883 191.14 502.323 190.684C502.888 190.55 503.401 190.253 503.798 189.83C504.326 189.172 504.279 188.237 504.173 187.4C503.646 183.229 502.325 179.198 500.281 175.524C501.831 175.722 503.516 175.894 504.853 175.086C505.602 174.634 506.5 173.282 506.128 172.362C505.541 170.907 504.48 172.131 503.164 171.888Z" fill="#3F3D56"/>
<path d="M304.542 194.826C304.728 195.82 304.91 196.867 304.584 197.825C304.258 198.783 303.233 199.583 302.265 199.289C301.514 199.062 301.08 198.306 300.546 197.73C297.58 194.528 290.886 196.382 289.054 192.419C288.306 190.802 288.814 188.865 288.304 187.158C287.982 186.171 287.341 185.319 286.483 184.736C285.624 184.153 284.597 183.871 283.561 183.936C282.616 184.072 281.697 184.347 280.832 184.75C275.037 187.071 268.954 188.593 262.749 189.273C261.57 189.345 260.403 189.557 259.275 189.905C256.727 190.829 254.986 193.191 253.747 195.601C252.508 198.011 251.594 200.621 249.933 202.762C248.187 205.013 245.741 206.589 243.46 208.293C242.581 208.86 241.849 209.627 241.324 210.531C240.829 211.547 240.857 212.728 240.896 213.857L241.362 227.568C241.422 229.332 241.497 231.159 242.287 232.737C243.272 234.708 245.22 235.999 246.57 237.74C247.949 239.529 248.667 241.739 248.603 243.997C248.574 244.905 248.484 245.979 249.191 246.549C249.621 246.827 250.124 246.972 250.637 246.964L269.185 248.482C272.447 248.749 276.063 249.189 278.193 251.674C279.198 252.847 280.006 254.534 281.546 254.66C282.206 254.714 282.849 254.443 283.51 254.391C285.176 254.259 286.641 255.524 287.565 256.917C288.963 259.041 289.598 261.577 289.365 264.109C289.213 265.699 288.721 267.244 288.614 268.837C288.21 274.899 293.349 280.166 293.449 286.241C293.507 289.814 291.811 293.152 290.157 296.32C292.826 300.364 290.641 305.748 291.703 310.475C292.711 314.959 296.451 318.47 297.382 322.971C297.809 325.032 297.834 327.567 299.651 328.629C300.448 329.017 301.332 329.194 302.217 329.143C307.558 329.206 312.838 328.004 317.625 325.635C319.872 324.52 322.2 322.855 322.593 320.378C322.909 318.38 321.896 316.146 322.927 314.405C324.142 312.354 327.255 312.517 329.043 310.94C331.944 308.382 329.682 303.503 330.857 299.819C331.914 296.507 335.55 294.747 337.353 291.774C338.062 290.496 338.571 289.116 338.862 287.684C339.688 284.259 340.202 280.767 340.398 277.25C340.446 275.113 340.603 272.98 340.87 270.859C342.813 258.785 354.75 250.7 358.625 239.101C358.995 237.994 359.169 236.518 358.183 235.891C357.599 235.613 356.936 235.543 356.307 235.695L347.757 236.773C346.695 236.907 345.569 237.032 344.594 236.591C343.618 236.15 342.919 234.916 343.437 233.979C344.889 231.348 341.902 228.024 340.575 225.329C337.001 218.07 332.745 211.168 327.864 204.715C327.551 204.383 327.356 203.958 327.307 203.505L329.733 203.586C328.914 200.647 327.562 197.43 324.707 196.355C323.098 195.749 321.316 195.959 319.599 196.052C314.681 196.321 309.409 195.579 304.542 194.826Z" fill="#3F3D56"/>
<path d="M319.603 128.589C320.89 129.955 322.332 131.404 324.194 131.642C327.482 132.063 329.847 128.662 331.352 125.709C331.408 126.462 331.755 127.163 332.32 127.664C332.885 128.165 333.623 128.426 334.377 128.391C335.189 128.254 335.964 127.952 336.653 127.501C343.169 123.941 350.466 122.054 357.891 122.011C357.82 121.449 357.959 120.88 358.283 120.414C358.606 119.948 359.091 119.619 359.643 119.49C361.152 119.19 362.512 120.496 363.24 121.851C363.969 123.207 364.423 124.779 365.58 125.793C366.737 126.808 368.977 126.764 369.434 125.294C369.872 123.884 368.403 122.68 367.182 121.849C365.96 121.017 364.673 119.477 365.496 118.25C371.734 116.869 378.011 115.483 384.395 115.208C385.482 115.246 386.565 115.06 387.576 114.66C388.55 114.182 389.323 113.098 389.062 112.046C387.669 112.373 386.209 112.278 384.871 111.773C383.532 111.268 382.373 110.376 381.544 109.21C390.401 108.479 399.822 107.856 407.672 112.024C408.614 114.046 403.813 115.729 405.098 117.553C405.507 118.134 406.328 118.203 407.04 118.216C412.495 118.317 417.981 118.416 423.375 117.593C425.346 117.292 427.336 116.867 429.315 117.111C432.611 117.517 435.43 119.717 438.673 120.434C439.993 120.726 441.472 120.735 442.585 119.968C443.698 119.2 444.176 117.452 443.264 116.454C446.317 113.462 451.384 114.204 455.412 115.636C459.44 117.069 463.256 119.379 467.518 119.698C470.575 119.927 473.675 119.105 476.695 119.628C478.594 119.956 480.36 120.801 482.215 121.319C485.724 122.301 489.436 122.093 493.079 122.141C502.374 122.266 511.568 124.093 520.205 127.531C521.329 127.897 522.358 128.505 523.221 129.312C524.024 130.173 524.434 131.51 523.894 132.557L514.969 131.253C515.81 132.908 517.985 133.19 519.752 133.761C521.519 134.332 523.351 136.283 522.289 137.806C520.375 137.197 518.64 139.111 517.673 140.872C516.706 142.633 515.528 144.741 513.522 144.849C511.725 144.945 509.553 143.415 508.382 144.781C510 146.822 511.385 149.036 512.512 151.384C513.669 153.794 514.493 156.83 512.929 158.999C512.683 159.386 512.31 159.675 511.874 159.817C510.597 160.14 509.767 158.578 508.852 157.631C507.698 156.438 505.953 156.1 504.39 155.541C502.827 154.981 501.181 153.88 501.059 152.225C500.983 151.195 501.526 150.238 501.927 149.286C502.6 147.681 502.895 145.943 502.787 144.207C502.7 142.81 502.308 141.356 501.305 140.38C500.301 139.404 498.569 139.094 497.492 139.988C496.989 140.405 496.586 141.073 495.933 141.098C494.78 141.142 493.895 139.131 492.967 139.817C493.076 140.549 492.924 141.295 492.538 141.926C489.77 144.334 485.516 143.315 481.947 144.166C480.249 144.652 478.624 145.361 477.114 146.276C476.549 146.518 476.069 146.921 475.733 147.436C475.287 148.302 475.779 149.411 476.564 149.986C477.397 150.497 478.333 150.817 479.304 150.922C483.656 151.746 488.071 153.022 491.507 155.817C494.942 158.612 497.195 163.232 496.108 167.526L487.526 159.326C487.852 162.769 488.037 166.221 488.081 169.683C488.137 170.359 488.044 171.039 487.809 171.676C487.197 173.027 485.539 173.482 484.086 173.78C483.682 173.857 483.299 174.018 482.962 174.253C482.624 174.489 482.34 174.793 482.129 175.146C481.918 175.499 481.783 175.892 481.735 176.301C481.686 176.709 481.725 177.124 481.848 177.516C482.364 179.199 483.651 180.511 484.83 181.818C486.008 183.125 487.168 184.611 487.322 186.364C487.477 188.118 486.154 190.094 484.398 189.972C483.067 189.88 482.079 188.688 481.512 187.48C480.944 186.273 480.606 184.928 479.753 183.902C477.171 180.797 471.371 182.127 469.058 178.816C468.469 179.485 468.06 180.294 467.871 181.165C467.681 182.036 467.718 182.941 467.977 183.795C469.053 183.121 470.526 183.747 471.334 184.726C472.143 185.705 472.524 186.959 473.159 188.059C474.016 189.542 475.379 190.857 475.499 192.566C475.467 193.213 475.478 193.86 475.532 194.505C475.744 195.541 476.619 196.284 477.226 197.15C478.638 199.163 478.568 201.93 477.658 204.215C476.748 206.5 475.113 208.409 473.494 210.261C470.665 213.494 467.779 216.708 464.425 219.393C463.468 220.16 462.447 220.913 461.851 221.984C461.255 223.055 461.225 224.559 462.141 225.374C461.485 225.406 460.31 225.729 459.655 225.762C459.424 223.133 459.374 220.491 459.505 217.856C456.919 216.614 454.135 219.94 454.468 222.789C454.802 225.638 456.863 227.924 458.33 230.389C459.403 232.192 460.2 234.294 459.842 236.361C459.484 238.427 457.639 240.334 455.549 240.152C452.225 239.862 450.835 235.09 447.543 234.544C447.253 234.476 446.948 234.506 446.677 234.63C446.188 234.898 446.103 235.552 446.076 236.108C445.941 238.841 445.824 241.682 446.891 244.201C448.451 247.886 452.482 250.981 451.637 254.893C447.081 252.776 444.713 247.667 443.638 242.761C442.562 237.854 442.383 232.703 440.456 228.064C438.992 229.94 435.916 228.389 434.578 226.421C433.31 224.555 432.53 222.397 431.3 220.506C430.07 218.615 428.185 216.922 425.932 216.818C423.569 216.708 421.52 218.33 419.718 219.862C418.236 221.121 416.715 222.431 415.849 224.172C414.588 226.706 414.918 229.693 414.857 232.523C414.792 235.582 414.143 238.809 412.059 241.049C409.974 243.288 406.126 244.068 403.826 242.05C402.626 240.996 402.044 239.422 401.526 237.911C399.031 230.627 396.952 223.206 395.301 215.686C394.915 217.402 393.407 219.615 391.967 218.603C391.644 218.332 391.382 217.994 391.199 217.614C388.513 213.062 383.539 210.331 378.514 208.694C373.488 207.057 368.201 206.293 363.231 204.494C360.446 203.485 357.786 202.16 355.303 200.545C354.67 201.475 354.3 202.558 354.233 203.681C354.166 204.804 354.404 205.924 354.922 206.923C356.024 208.875 358.519 210.004 360.654 209.322C361.758 208.969 362.69 208.203 363.785 207.825C364.88 207.447 366.349 207.632 366.828 208.687C367.286 209.697 366.594 210.919 366.937 211.973C367.461 213.579 369.883 213.702 370.729 215.164C371.36 216.251 370.841 217.695 369.941 218.572C369.042 219.449 367.841 219.93 366.743 220.541C363.18 222.522 360.646 225.905 357.532 228.537C354.417 231.168 350.024 233.09 346.312 231.402C347.197 226.922 341.861 223.633 340.879 219.174C340.556 217.706 340.723 216.147 340.262 214.716C339.594 212.645 337.757 211.221 336.25 209.652C334.421 207.728 332.997 205.457 332.061 202.973C331.124 200.49 330.695 197.844 330.798 195.191C330.879 193.348 331.218 191.475 330.798 189.679C330.378 187.883 328.891 186.144 327.048 186.225C322.838 186.411 317.535 186.724 315.327 183.136C314.539 181.855 314.196 179.979 315.335 178.998C316.139 178.306 317.326 178.371 318.382 178.475L327.866 179.408C330.085 179.626 332.482 179.806 334.386 178.647C336.29 177.487 337.114 174.409 335.352 173.044C334.064 172.047 331.757 172.101 331.382 170.516C331.07 169.196 332.532 167.699 331.742 166.595C331.176 165.804 329.904 166.024 329.133 166.617C328.363 167.21 327.803 168.077 326.941 168.526C325.427 169.314 323.619 168.564 321.99 168.055C320.362 167.545 318.179 167.502 317.39 169.014C316.506 170.705 318.173 172.922 317.296 174.616C316.138 176.857 312.213 175.582 310.585 177.509C308.717 179.721 311.856 183.018 311.226 185.844C310.422 186.242 309.528 186.425 308.632 186.375C307.737 186.324 306.869 186.042 306.114 185.557C305.372 185.052 304.781 184.355 304.403 183.541C304.025 182.727 303.875 181.826 303.969 180.934C304.125 179.663 304.787 178.365 304.343 177.164C303.984 176.193 303.009 175.615 302.103 175.114L292.886 170.021C292.031 171.608 293.112 173.576 294.465 174.769C295.818 175.961 297.513 176.859 298.402 178.428C298.964 179.515 299.09 180.776 298.754 181.953C298.418 183.13 297.646 184.134 296.594 184.761C296.463 184.852 296.313 184.913 296.155 184.941C295.997 184.968 295.836 184.961 295.681 184.92C295.534 184.834 295.406 184.719 295.304 184.582C295.202 184.445 295.129 184.289 295.088 184.123C293.462 179.962 291.021 175.859 287.117 173.685C283.213 171.511 277.604 171.958 275.045 175.62C274.437 176.49 274.029 177.481 273.499 178.401C270.685 183.287 264.652 185.6 259.016 185.449C258.465 185.48 257.916 185.351 257.436 185.078C256.525 184.449 256.566 183.114 256.706 182.016L257.297 177.355C257.416 176.419 257.588 175.385 258.329 174.8C259.373 173.977 260.879 174.497 262.209 174.477C263.217 174.43 264.185 174.075 264.984 173.458C265.782 172.842 266.372 171.995 266.672 171.033C266.941 170.061 266.939 169.034 266.668 168.063C266.396 167.092 265.864 166.213 265.13 165.522C264.52 164.949 263.702 164.23 264.024 163.459C264.153 163.245 264.326 163.062 264.533 162.923C264.739 162.784 264.974 162.692 265.22 162.653C267.609 161.96 270.132 161.778 272.481 160.959C274.83 160.141 277.108 158.467 277.664 156.042C277.834 155.3 277.912 154.4 278.579 154.031C278.914 153.89 279.273 153.816 279.637 153.815C280.91 153.634 282.07 152.983 282.887 151.99C283.704 150.996 284.12 149.733 284.052 148.449C285.178 147.662 286.755 148.241 287.844 149.077C288.933 149.914 289.894 151.019 291.219 151.38C293.688 152.052 296.075 149.866 298.634 149.856C299.71 149.851 300.824 150.232 301.836 149.867C302.863 149.497 303.476 148.475 304.263 147.721C305.051 146.966 306.433 146.505 307.161 147.318L306.541 142.731C307.789 143.046 309.089 143.09 310.355 142.861C311.621 142.633 312.823 142.135 313.881 141.403L305.876 138.699C305.598 138.629 305.34 138.492 305.128 138.298C304.546 137.672 305.124 136.695 305.597 135.983C306.729 134.279 306.919 131.471 305.058 130.623C303.787 130.044 302.328 130.739 301.108 131.419L295.266 134.677C295.08 135.787 296.438 136.417 297.28 137.165C297.789 137.618 298.149 138.214 298.313 138.875C298.478 139.536 298.438 140.231 298.2 140.87C297.962 141.508 297.536 142.059 296.979 142.451C296.422 142.843 295.759 143.057 295.078 143.065C295.462 143.566 295.73 144.146 295.86 144.763C295.99 145.381 295.979 146.02 295.829 146.633L291.898 146.916C291.457 147.004 290.998 146.915 290.623 146.667C290.202 146.293 290.259 145.639 290.162 145.085C289.927 143.748 288.618 142.812 287.282 142.571C285.946 142.331 284.58 142.639 283.257 142.943C282.695 143.145 282.079 143.131 281.527 142.903C281.21 142.698 280.97 142.394 280.842 142.039C280.262 140.633 280.804 138.98 281.736 137.778C282.667 136.575 283.942 135.696 285.087 134.695C287.826 132.293 289.838 129.172 290.896 125.686C293.06 124.78 295.3 123.548 297.464 122.641C300.801 120.952 304.542 120.227 308.268 120.548L315.597 120.688C317.767 120.729 319.995 120.782 322.002 121.609C324.008 122.437 325.771 124.226 325.91 126.392C325.952 126.637 325.93 126.888 325.848 127.123C325.766 127.358 325.625 127.568 325.44 127.734C325.157 127.888 324.836 127.961 324.513 127.942C322.49 128.014 321.627 128.518 319.603 128.589Z" fill="#3F3D56"/>
<path d="M261.187 151.558C261.474 151.287 261.68 150.942 261.783 150.562C261.886 150.181 261.882 149.779 261.772 149.401C261.075 149.132 260.317 149.063 259.583 149.202C258.85 149.34 258.169 149.681 257.618 150.185C257.184 150.624 256.81 151.119 256.505 151.656C255.542 153.228 254.691 155.104 255.249 156.861C255.294 157.052 255.378 157.233 255.494 157.392C255.61 157.551 255.757 157.685 255.925 157.786C256.176 157.886 256.445 157.929 256.714 157.91C257.775 157.908 258.835 157.843 259.888 157.714C260.535 157.635 261.286 157.453 261.536 156.851C261.864 156.06 261.069 155.165 261.301 154.34C261.453 153.972 261.684 153.641 261.978 153.371C262.124 153.235 262.236 153.066 262.305 152.88C262.374 152.693 262.399 152.492 262.377 152.294C262.284 151.907 261.692 151.688 261.478 152.024" fill="#3F3D56"/>
<path d="M266.689 144.425C265.746 144.209 264.775 144.148 263.813 144.245C263.6 144.238 263.389 144.286 263.2 144.384C263.017 144.519 262.884 144.712 262.822 144.931C262.619 145.583 262.669 146.288 262.962 146.905C263.255 147.522 263.77 148.006 264.404 148.261C264.75 148.34 265.081 148.473 265.385 148.655C266.198 149.286 265.68 150.576 265.834 151.594C266.007 152.737 267.113 153.697 266.91 154.835C266.751 155.731 265.793 156.441 265.947 157.339C266.109 158.279 267.302 158.562 268.253 158.637C268.804 158.734 269.371 158.669 269.886 158.45C270.402 158.097 270.769 157.565 270.917 156.957C271.306 155.799 271.47 154.576 271.399 153.355C271.394 152.8 271.255 152.255 270.992 151.766C270.706 151.378 270.389 151.015 270.043 150.679C268.221 148.559 270.14 145.398 266.689 144.425Z" fill="#3F3D56"/>
<path opacity="0.8" d="M506.281 310.45C506.281 310.45 366.732 230.347 306.654 245.524C306.654 245.524 179.332 259.226 164.576 289.371C164.576 289.371 124.103 162.891 109.347 158.675" stroke="#A7001E" stroke-width="2" stroke-miterlimit="10"/>
<path opacity="0.8" d="M164.576 289.371C187.975 226.974 398.774 157.832 398.774 157.832C368.84 165.421 306.654 245.525 306.654 245.525C306.654 245.525 175.116 149.822 109.347 158.675C109.347 158.675 398.984 168.161 506.281 310.451" stroke="#A7001E" stroke-width="2" stroke-miterlimit="10"/>
<path d="M109.347 164.789C112.723 164.789 115.46 162.052 115.46 158.675C115.46 155.299 112.723 152.562 109.347 152.562C105.971 152.562 103.234 155.299 103.234 158.675C103.234 162.052 105.971 164.789 109.347 164.789Z" fill="#A7001E"/>
<path d="M164.576 295.484C167.952 295.484 170.689 292.747 170.689 289.371C170.689 285.995 167.952 283.258 164.576 283.258C161.2 283.258 158.463 285.995 158.463 289.371C158.463 292.747 161.2 295.484 164.576 295.484Z" fill="#A7001E"/>
<path d="M398.774 163.945C402.15 163.945 404.887 161.208 404.887 157.832C404.887 154.456 402.15 151.719 398.774 151.719C395.398 151.719 392.661 154.456 392.661 157.832C392.661 161.208 395.398 163.945 398.774 163.945Z" fill="#A7001E"/>
<path d="M506.281 316.564C509.657 316.564 512.394 313.827 512.394 310.451C512.394 307.074 509.657 304.337 506.281 304.337C502.905 304.337 500.168 307.074 500.168 310.451C500.168 313.827 502.905 316.564 506.281 316.564Z" fill="#A7001E"/>
<path d="M306.655 251.638C310.031 251.638 312.768 248.901 312.768 245.525C312.768 242.148 310.031 239.411 306.655 239.411C303.278 239.411 300.542 242.148 300.542 245.525C300.542 248.901 303.278 251.638 306.655 251.638Z" fill="#A7001E"/>
</g>
<defs>
<clipPath id="clip0">
<rect width="601" height="446.42" fill="white"/>
</clipPath>
</defs>
</svg>
