<svg width="164" height="93" viewBox="0 0 164 93" fill="none" xmlns="http://www.w3.org/2000/svg">
<g clip-path="url(#clip0)">
<path opacity="0.1" d="M58.9766 69.581C89.8922 69.581 114.954 68.9097 114.954 68.0816C114.954 67.2535 89.8922 66.5822 58.9766 66.5822C28.0611 66.5822 2.99902 67.2535 2.99902 68.0816C2.99902 68.9097 28.0611 69.581 58.9766 69.581Z" fill="#A7001E"/>
<g opacity="0.7">
<path opacity="0.7" d="M38.1279 57.0147H20.2778V66.8679H38.1279V57.0147Z" fill="#65617D"/>
<path opacity="0.1" d="M31.9874 58.7283H26.561V59.8708H31.9874V58.7283Z" fill="black"/>
<path opacity="0.1" d="M31.3093 58.8712H27.2395V59.7279H31.3093V58.8712Z" fill="black"/>
<path opacity="0.7" d="M56.2636 57.0147H38.4136V66.8679H56.2636V57.0147Z" fill="#65617D"/>
<path opacity="0.1" d="M50.1234 58.7283H44.697V59.8708H50.1234V58.7283Z" fill="black"/>
<path opacity="0.1" d="M49.4443 58.8712H45.3745V59.7279H49.4443V58.8712Z" fill="black"/>
<path opacity="0.7" d="M38.1279 46.876H20.2778V56.7292H38.1279V46.876Z" fill="#65617D"/>
<path opacity="0.1" d="M31.9874 48.5894H26.561V49.7319H31.9874V48.5894Z" fill="black"/>
<path opacity="0.1" d="M31.3093 48.7323H27.2395V49.5891H31.3093V48.7323Z" fill="black"/>
<path opacity="0.7" d="M56.2636 46.876H38.4136V56.7292H56.2636V46.876Z" fill="#65617D"/>
<path opacity="0.1" d="M50.1234 48.5894H44.697V49.7319H50.1234V48.5894Z" fill="black"/>
<path opacity="0.1" d="M49.4443 48.7323H45.3745V49.5891H49.4443V48.7323Z" fill="black"/>
<path opacity="0.7" d="M38.1279 36.5941H20.2778V46.4473H38.1279V36.5941Z" fill="#65617D"/>
<path opacity="0.1" d="M31.9874 38.3079H26.561V39.4503H31.9874V38.3079Z" fill="black"/>
<path opacity="0.1" d="M31.3093 38.4508H27.2395V39.3076H31.3093V38.4508Z" fill="black"/>
<path opacity="0.7" d="M56.2636 36.5941H38.4136V46.4473H56.2636V36.5941Z" fill="#65617D"/>
<path opacity="0.1" d="M50.1234 38.3079H44.697V39.4503H50.1234V38.3079Z" fill="black"/>
<path opacity="0.1" d="M49.4443 38.4508H45.3745V39.3076H49.4443V38.4508Z" fill="black"/>
<path opacity="0.7" d="M56.2636 26.3127H38.4136V36.1659H56.2636V26.3127Z" fill="#65617D"/>
<path opacity="0.1" d="M50.1234 28.0262H44.697V29.1686H50.1234V28.0262Z" fill="black"/>
<path opacity="0.1" d="M49.4443 28.1689H45.3745V29.0257H49.4443V28.1689Z" fill="black"/>
</g>
<g opacity="0.7">
<path opacity="0.7" d="M74.3991 56.8721H56.5491V66.7253H74.3991V56.8721Z" fill="#65617D"/>
<path opacity="0.1" d="M68.2587 58.5858H62.8323V59.7282H68.2587V58.5858Z" fill="black"/>
<path opacity="0.1" d="M67.5806 58.7284H63.5107V59.5853H67.5806V58.7284Z" fill="black"/>
<path opacity="0.7" d="M92.5348 56.8721H74.6848V66.7253H92.5348V56.8721Z" fill="#65617D"/>
<path opacity="0.1" d="M86.3947 58.5858H80.9683V59.7282H86.3947V58.5858Z" fill="black"/>
<path opacity="0.1" d="M85.7155 58.7284H81.6458V59.5853H85.7155V58.7284Z" fill="black"/>
<path opacity="0.7" d="M74.3991 46.7332H56.5491V56.5865H74.3991V46.7332Z" fill="#65617D"/>
<path opacity="0.1" d="M68.2587 48.4468H62.8323V49.5892H68.2587V48.4468Z" fill="black"/>
<path opacity="0.1" d="M67.5806 48.5897H63.5107V49.4465H67.5806V48.5897Z" fill="black"/>
<path opacity="0.7" d="M92.5348 46.7332H74.6848V56.5865H92.5348V46.7332Z" fill="#65617D"/>
<path opacity="0.1" d="M86.3947 48.4468H80.9683V49.5892H86.3947V48.4468Z" fill="black"/>
<path opacity="0.1" d="M85.7155 48.5897H81.6458V49.4465H85.7155V48.5897Z" fill="black"/>
<path opacity="0.7" d="M74.3991 36.4517H56.5491V46.3048H74.3991V36.4517Z" fill="#65617D"/>
<path opacity="0.1" d="M68.2587 38.1653H62.8323V39.3077H68.2587V38.1653Z" fill="black"/>
<path opacity="0.1" d="M67.5806 38.3083H63.5107V39.1651H67.5806V38.3083Z" fill="black"/>
<path opacity="0.7" d="M92.5348 36.4517H74.6848V46.3048H92.5348V36.4517Z" fill="#65617D"/>
<path opacity="0.1" d="M86.3947 38.1653H80.9683V39.3077H86.3947V38.1653Z" fill="black"/>
<path opacity="0.1" d="M85.7155 38.3083H81.6458V39.1651H85.7155V38.3083Z" fill="black"/>
<path opacity="0.7" d="M92.5348 26.17H74.6848V36.0233H92.5348V26.17Z" fill="#65617D"/>
<path opacity="0.1" d="M86.3947 27.8835H80.9683V29.0259H86.3947V27.8835Z" fill="black"/>
<path opacity="0.1" d="M85.7155 28.0263H81.6458V28.8831H85.7155V28.0263Z" fill="black"/>
</g>
<path d="M102.439 48.8391C102.427 48.7309 102.389 48.6275 102.327 48.5381C102.265 48.4488 102.181 48.3765 102.084 48.3279C102.002 48.293 101.914 48.2749 101.824 48.2747C101.735 48.2746 101.647 48.2923 101.565 48.327C101.483 48.3616 101.409 48.4124 101.347 48.4764C101.285 48.5403 101.236 48.6161 101.204 48.6992L98.0324 55.3722L97.3184 81.6474H98.4608L98.8892 55.4308L102.379 49.2532C102.442 49.125 102.463 48.98 102.439 48.8391Z" fill="#3F3D56"/>
<path opacity="0.1" d="M153.59 87.5822C152.654 88.3999 151.647 89.1317 150.58 89.7684C150.563 89.7919 150.545 89.8139 150.524 89.8341C150.411 89.9302 150.276 89.9978 150.131 90.0312C146.593 92.0034 142.604 93.0275 138.553 93.0043H60.0389C51.0425 92.0789 45.5532 90.8523 45.5532 89.5057C45.5532 88.4618 48.849 87.4894 54.5239 86.6754C55.1123 86.5897 55.7258 86.5069 56.3646 86.4269C56.7578 86.3774 57.16 86.3298 57.5713 86.2841L58.2696 86.2027C58.7875 86.1437 59.3192 86.0861 59.8646 86.0299H59.9089L60.4801 85.9728C60.9628 85.9228 61.4554 85.8757 61.9581 85.83L62.3237 85.7972L63.2562 85.7144C63.8616 85.6601 64.4804 85.6082 65.1126 85.5587C65.6371 85.5178 66.1702 85.4768 66.7119 85.4359C72.204 85.0289 78.5358 84.7219 85.4259 84.5234L87.3937 84.4563L88.0562 84.442L89.4557 84.4106L90.0169 84.3992L90.6067 84.3878L91.0265 84.3806L92.9971 84.3492L94.0096 84.3349H94.2166C96.6109 84.3064 99.0499 84.2916 101.534 84.2906C106.443 84.2906 111.204 84.3492 115.741 84.4606C118.346 84.5234 120.871 84.6034 123.316 84.7005H123.339C130.391 84.9775 136.703 85.3859 141.926 85.8929L142.022 85.9029C143.363 86.0328 144.632 86.1713 145.823 86.3141C146.944 86.4483 147.997 86.5897 148.973 86.7339C149.312 86.7839 149.64 86.8353 149.96 86.8853L150.041 86.8996C151.395 87.1181 152.583 87.3408 153.59 87.5822Z" fill="#A7001E"/>
<path d="M150.58 89.7682C150.563 89.7917 150.545 89.8137 150.524 89.8339C150.411 89.93 150.276 89.9976 150.132 90.031C149.843 90.112 149.546 90.1599 149.246 90.1738H149.156C148.985 90.1795 148.814 90.1737 148.644 90.1566C148.519 90.1386 148.394 90.1305 148.268 90.1324H148.251C148.068 90.158 147.889 90.2025 147.715 90.2652C147.329 90.3711 146.931 90.4277 146.53 90.4337H146.387C145.939 90.4337 145.485 90.418 145.035 90.4208C144.962 90.4208 144.892 90.4208 144.817 90.4208C144.045 90.4408 143.279 90.5636 142.507 90.5765H142.26C141.505 90.5579 140.732 90.3965 140.131 89.9396C140.01 89.8594 139.912 89.7492 139.846 89.6197C139.794 89.4831 139.777 89.336 139.796 89.1913C139.81 88.9328 139.86 88.6515 140.054 88.4773C140.176 88.3837 140.316 88.3161 140.465 88.2788C140.727 88.1946 140.99 88.1132 141.251 88.0318C141.512 87.9504 141.811 87.8633 142.092 87.7804L142.146 87.7633L142.303 87.7162L142.405 87.6819C142.528 87.6424 142.645 87.5888 142.756 87.522C142.902 87.4298 143.025 87.3064 143.117 87.1607C143.133 87.135 143.15 87.1078 143.164 87.0807C143.179 87.0536 143.164 87.0365 143.154 87.0136C143.13 86.8351 143.112 86.6523 143.08 86.4781C142.678 86.3849 142.312 86.1776 142.025 85.8812C141.778 85.6368 141.571 85.356 141.409 85.0487C141.054 84.3804 140.871 83.6335 140.605 82.9238C140.198 81.8442 139.606 80.8475 139.009 79.8593C138.463 78.9482 137.915 78.0343 137.295 77.1732C136.883 76.602 136.438 76.058 136.03 75.4853C134.875 73.8875 134.046 72.0775 133.591 70.1589C133.521 69.7908 133.423 69.4289 133.295 69.0765C133.05 68.4767 132.6 67.9883 132.252 67.44C131.877 66.8489 131.62 66.1909 131.496 65.5022C131.425 65.1109 131.305 64.6882 130.915 64.6454L130.874 64.7268C130.065 66.2976 129.236 67.897 128.018 69.1793C127.823 69.3678 127.644 69.5728 127.485 69.7919C127.357 70.0044 127.242 70.2247 127.142 70.4516C126.949 70.8591 126.693 71.2335 126.384 71.5612C126.292 71.6544 126.191 71.739 126.084 71.814C125.941 71.9177 125.783 71.9973 125.614 72.0496C125.548 72.0699 125.48 72.0851 125.411 72.0953C125.411 72.1124 125.419 72.1281 125.42 72.1453C125.421 72.1624 125.429 72.1824 125.431 72.2009C125.642 73.3434 125.551 74.5209 125.17 75.6182C125.16 75.6524 125.149 75.6853 125.136 75.7195C125.077 75.8795 125.013 76.0366 124.943 76.1908C124.769 76.5692 124.562 76.9319 124.399 77.316C124.372 77.3817 124.345 77.4474 124.32 77.5131C123.749 79.0425 123.892 80.7504 123.818 82.394C123.811 82.7534 123.769 83.1113 123.691 83.4622C123.594 83.8577 123.438 84.2661 123.352 84.6745C123.274 84.9807 123.268 85.3008 123.334 85.6099L123.299 85.6227C123.147 85.6798 122.991 85.7313 122.835 85.7798V85.8012C122.891 86.1211 122.945 86.441 123.001 86.7594C123.048 87.0336 123.104 87.3306 123.295 87.5248C123.347 87.5677 123.395 87.6155 123.438 87.6676C123.551 87.8447 123.451 88.0789 123.472 88.2888C123.504 88.5858 123.778 88.8386 123.735 89.1342C123.716 89.2225 123.675 89.3048 123.617 89.374C123.559 89.4431 123.485 89.4971 123.401 89.5312C123.33 89.563 123.257 89.5865 123.181 89.6011L123.134 89.6111C123.048 89.6268 122.962 89.6354 122.877 89.644C121.813 89.7496 120.735 89.8553 119.681 89.6754C119.472 89.6397 119.265 89.5926 119.054 89.5754C118.787 89.5635 118.519 89.5745 118.254 89.6083C116.299 89.7934 114.333 89.8316 112.372 89.7225C111.863 89.694 111.277 89.6111 111.007 89.1756C110.783 88.8143 110.864 88.3474 110.977 87.9347C111.009 87.7829 111.068 87.6379 111.15 87.5063C111.159 87.492 111.17 87.4786 111.181 87.4663C111.444 87.1393 111.938 87.1193 112.364 87.1321L113.755 87.1735C113.892 87.1847 114.029 87.174 114.163 87.1421C114.389 87.0764 114.56 86.8965 114.771 86.7951C115.037 86.668 115.371 86.6523 115.562 86.4353L115.587 86.4038C115.621 86.3578 115.652 86.3102 115.681 86.261C115.681 86.251 115.694 86.2411 115.701 86.2311C115.706 86.2222 115.712 86.2136 115.718 86.2054C115.894 85.974 116.201 85.8969 116.451 85.7498C116.489 85.7277 116.524 85.7024 116.558 85.6741L116.586 85.6484C116.317 85.4565 116.083 85.2204 115.892 84.9501C115.819 84.8712 115.765 84.7764 115.734 84.6731C115.716 84.5955 115.722 84.5145 115.751 84.4403C115.757 84.4221 115.765 84.4045 115.774 84.3875L115.781 84.3732C115.878 84.1819 116.078 84.0091 116.188 83.8134C116.192 83.8072 116.195 83.8005 116.198 83.7935C116.349 83.5079 116.379 83.0652 116.155 82.8353C116.269 80.9546 116.786 79.1225 116.901 77.2361C116.946 76.4892 116.928 75.7395 116.962 74.9898C116.996 74.2401 117.076 73.5133 117.16 72.7779C117.349 71.0971 117.806 69.4506 117.742 67.7627C117.736 67.6054 117.743 67.4478 117.762 67.2915C117.761 67.2801 117.761 67.2686 117.762 67.2572C117.807 66.9113 117.915 66.5766 118.08 66.269C118.287 65.9215 118.522 65.591 118.781 65.2809C119.659 64.1385 120.715 62.9961 121.027 61.5909C121.189 60.8655 121.546 60.2015 121.901 59.5489C122.111 59.1604 122.33 58.762 122.665 58.4764C122.847 58.3506 123.016 58.2071 123.169 58.048C123.404 57.7453 123.412 57.3269 123.551 56.967C123.622 56.78 123.732 56.6086 123.786 56.4158C123.786 56.3958 123.796 56.3773 123.801 56.3573C123.832 56.1627 123.849 55.966 123.851 55.7689C123.851 55.7118 123.859 55.6561 123.866 55.6004C123.95 55.0359 124.114 54.4862 124.353 53.9682C124.383 53.9025 124.412 53.8354 124.44 53.7697C123.782 53.3854 123.2 52.8812 122.727 52.2832C122.566 52.0897 122.427 51.8795 122.311 51.6563C122.017 51.0722 121.95 50.4068 121.811 49.7671C121.48 48.242 120.722 46.8054 120.616 45.246C120.585 44.7705 120.616 44.2792 120.451 43.8294C120.405 43.7078 120.351 43.5895 120.289 43.4753C120.263 43.4267 120.239 43.3782 120.213 43.3325L120.185 43.2782L120.112 43.1354L119.995 43.2268C117.074 45.5143 114.006 47.6094 110.813 49.4986L110.539 49.6614C110.396 49.7302 110.272 49.832 110.176 49.9584C110.165 49.977 110.155 49.9955 110.145 50.0141C110.079 50.1498 110.062 50.2997 110.002 50.4425C109.873 50.7695 109.543 50.978 109.206 51.0751C108.597 51.2319 107.95 51.1486 107.4 50.8423C107.33 50.8066 107.257 50.7695 107.194 50.7281C107.027 50.8207 106.851 50.8958 106.669 50.9523C106.098 51.1179 105.499 51.1108 104.908 51.1094C104.317 51.1079 103.713 51.1094 103.153 51.3036C102.779 51.4307 102.416 51.6406 102.028 51.6606C101.983 51.6634 101.938 51.6634 101.894 51.6606C101.672 51.6352 101.457 51.5719 101.257 51.4735L101.14 51.4207C101.079 51.3919 101.02 51.36 100.963 51.325C100.9 51.2864 100.842 51.2409 100.79 51.1893C100.714 51.1135 100.659 51.0196 100.63 50.9166C100.611 50.8421 100.611 50.764 100.63 50.6895C100.635 50.6561 100.653 50.6258 100.678 50.6039C100.704 50.5888 100.733 50.5814 100.763 50.5824C100.926 50.5807 101.09 50.5945 101.251 50.6239C101.346 50.6368 101.441 50.6421 101.537 50.6396H101.588C101.672 50.6305 101.754 50.6043 101.827 50.5626C101.901 50.5208 101.965 50.4644 102.016 50.3968C102.032 50.3759 102.045 50.3528 102.054 50.3283C102.071 50.2881 102.08 50.2449 102.079 50.2012C102.08 50.1902 102.08 50.1793 102.079 50.1683C102.019 50.1412 101.959 50.1141 101.902 50.0812C101.872 50.0655 101.844 50.0484 101.815 50.0312L101.798 50.0198C101.747 49.9849 101.699 49.9453 101.655 49.9013C101.627 49.8738 101.603 49.8431 101.582 49.8099C101.544 49.7582 101.516 49.7002 101.498 49.6385C101.38 49.614 101.259 49.6174 101.142 49.6485C100.987 49.6914 100.83 49.7828 100.676 49.8142C100.598 49.8338 100.516 49.8303 100.44 49.8042C100.217 49.7242 100.139 49.4529 100.091 49.2201C100.083 49.1759 100.073 49.1302 100.066 49.0845C100.049 48.9967 100.049 48.9066 100.066 48.8189C100.135 48.6193 100.267 48.4475 100.441 48.3291L100.91 47.9364L100.944 47.9078C100.944 47.8692 100.928 47.8307 100.923 47.7921C100.906 47.7039 100.906 47.6133 100.923 47.5251C100.992 47.326 101.123 47.1546 101.298 47.0367L102.335 46.1642C102.529 46.0014 102.74 45.8301 102.993 45.8129C103.369 45.7872 103.669 46.0985 103.95 46.3484C104.304 46.6626 104.734 46.9196 105.207 46.951C105.432 46.9613 105.657 46.9304 105.871 46.8596L105.992 46.8197C105.966 46.7668 105.941 46.714 105.916 46.6612C105.875 46.574 105.833 46.4855 105.793 46.397C106.402 46.3584 106.954 46.0243 107.416 45.6244C107.877 45.2246 108.273 44.7519 108.738 44.3592C109.241 43.9308 109.818 43.6124 110.327 43.1997C111.513 42.2386 112.299 40.8263 113.568 39.9795C114.007 39.6839 114.516 39.4483 114.816 39.0085C114.908 38.8657 114.978 38.7229 115.074 38.5801C115.378 38.1517 115.899 37.9546 116.329 37.6576C116.759 37.3606 117.133 36.925 117.483 36.5066C117.732 36.2082 117.982 35.9097 118.219 35.6027C118.437 35.1957 118.621 34.7702 118.85 34.3689C119.044 34.0299 119.27 33.7105 119.525 33.415C119.584 33.3008 119.644 33.1865 119.708 33.0752C119.772 32.9638 119.819 32.8881 119.879 32.7896C119.921 32.7253 119.964 32.6639 120.008 32.6011C119.878 32.3712 119.754 32.1727 119.695 32.0856L119.667 32.047C119.541 31.9128 119.406 31.7869 119.264 31.67C119.115 31.6474 118.967 31.6159 118.821 31.5758C117.94 31.3342 117.162 30.8096 116.609 30.0827C116.055 29.3557 115.756 28.4669 115.757 27.5531C115.756 27.5488 115.756 27.5445 115.757 27.5402C115.757 26.8858 115.913 26.2408 116.211 25.6581C116.271 25.541 116.335 25.4282 116.405 25.3183C116.34 25.2977 116.276 25.2719 116.215 25.2411C116.111 25.1898 116.02 25.115 115.949 25.0227C115.891 24.9404 115.854 24.8454 115.84 24.7456C115.815 24.5103 115.851 24.2726 115.942 24.0545C115.981 23.9495 116.026 23.8465 116.075 23.746C116.079 23.7401 116.082 23.7339 116.085 23.7275C116.723 22.4423 118.084 21.6526 119.444 21.5969C120.91 21.5383 122.338 22.2266 123.495 23.212C123.84 23.4952 124.149 23.8199 124.415 24.1787C125.019 25.0184 125.291 26.0922 125.371 27.1561C125.401 27.4851 125.396 27.8165 125.354 28.1443C125.339 28.2611 125.315 28.3766 125.283 28.4898C125.264 28.557 125.24 28.6241 125.214 28.6912C125.189 28.7583 125.173 28.7883 125.15 28.834V28.8411C125.129 28.8868 125.104 28.9297 125.08 28.9725L125.067 28.9911L125.049 29.0211C125.06 29.0482 125.073 29.0768 125.086 29.1039C125.099 29.131 125.11 29.1567 125.124 29.1824H125.142C125.427 29.2053 125.691 29.2453 125.983 29.2681C126.12 29.2746 126.256 29.2957 126.388 29.3309C126.674 29.4166 126.889 29.6251 127.129 29.7936C127.723 30.2134 128.455 30.4091 129.039 30.8432C129.895 31.4829 130.324 32.5397 130.844 33.4864C131.529 34.7545 132.646 35.8341 133.138 37.1907C133.361 37.8066 133.585 38.4216 133.81 39.0356C134.248 40.2394 134.686 41.4489 135.282 42.5842C136.11 44.1636 137.231 45.583 137.895 47.2424C137.961 47.4086 138.085 47.5456 138.243 47.6279C139.148 48.9056 139.953 50.2515 140.65 51.6534C141.017 52.3946 141.364 53.1643 141.471 53.9854C141.554 54.7164 141.494 55.4568 141.292 56.1645C141.178 56.5849 141.039 56.9979 140.874 57.4012C140.81 57.5423 140.762 57.6904 140.731 57.8424C140.731 57.8581 140.731 57.8738 140.731 57.8895C140.702 58.1637 140.807 58.435 140.835 58.7092C140.859 58.9299 140.834 59.1532 140.762 59.3632C140.751 59.3961 140.738 59.4289 140.725 59.4618C140.637 59.6287 140.562 59.8025 140.501 59.9815C140.496 60.0032 140.492 60.0251 140.49 60.0472C140.443 60.3571 140.565 60.6698 140.633 60.9797C140.884 62.0993 140.838 63.2645 140.775 64.4069C140.742 64.9781 141.204 65.4365 141.589 65.8578C142.303 66.6475 142.862 67.5714 143.4 68.491C143.694 68.9579 143.941 69.4524 144.138 69.9676C144.342 70.5559 144.424 71.1785 144.537 71.7883C144.901 73.6732 146.09 75.3383 146.413 77.2275C146.563 78.0927 146.944 78.901 147.517 79.5666C147.689 79.7448 147.848 79.9358 147.992 80.1378C148.092 80.2988 148.171 80.4714 148.228 80.6519C148.369 81.0718 148.435 81.513 148.424 81.9556C148.401 82.1675 148.413 82.3817 148.459 82.5897C148.594 83.028 149.073 83.2694 149.272 83.6821C149.47 84.0948 149.333 84.6231 149.415 85.0915C149.479 85.4691 149.683 85.8088 149.986 86.0426C149.872 86.1425 149.752 86.2339 149.629 86.3282C149.743 86.4164 149.842 86.5214 149.925 86.6395C149.981 86.7185 150.029 86.8032 150.067 86.8922C150.256 87.3306 150.262 87.8518 150.416 88.3202C150.481 88.5144 150.574 88.7201 150.517 88.9171C150.493 88.9736 150.476 89.0332 150.469 89.0942C150.469 89.2227 150.603 89.307 150.654 89.4241C150.673 89.4829 150.676 89.5457 150.663 89.606C150.65 89.6664 150.621 89.7223 150.58 89.7682Z" fill="url(#paint0_linear)"/>
<path d="M120.358 34.0763C121.232 33.8407 122.01 33.3481 122.773 32.8611L125.43 31.1689C124.709 31.1118 124.087 30.5977 123.717 29.9751C123.347 29.3525 123.194 28.6285 123.068 27.9174C121.926 28.3629 120.936 29.1183 120.014 29.9166C119.648 30.2322 118.872 30.7091 118.759 31.2018C118.646 31.6944 119.366 32.0943 119.644 32.4241C119.74 32.5341 120.641 33.9978 120.358 34.0763Z" fill="#FBBEBE"/>
<path opacity="0.1" d="M120.358 34.0763C121.232 33.8407 122.01 33.3481 122.773 32.8611L125.43 31.1689C124.709 31.1118 124.087 30.5977 123.717 29.9751C123.347 29.3525 123.194 28.6285 123.068 27.9174C121.926 28.3629 120.936 29.1183 120.014 29.9166C119.648 30.2322 118.872 30.7091 118.759 31.2018C118.646 31.6944 119.366 32.0943 119.644 32.4241C119.74 32.5341 120.641 33.9978 120.358 34.0763Z" fill="black"/>
<path d="M105.836 48.0541C105.367 48.294 104.869 48.5396 104.345 48.5053C103.874 48.4753 103.444 48.2197 103.09 47.907C102.804 47.6585 102.51 47.3486 102.134 47.3743C101.883 47.3915 101.672 47.5614 101.477 47.7228L100.442 48.5895C100.268 48.7067 100.136 48.877 100.067 49.0751C100.046 49.2095 100.054 49.3467 100.091 49.4777C100.138 49.7091 100.217 49.979 100.439 50.0575C100.662 50.136 100.905 49.9675 101.14 49.9033C101.284 49.8665 101.436 49.8692 101.578 49.9112C101.721 49.9532 101.849 50.0328 101.95 50.1418C102.034 50.2245 102.085 50.3353 102.093 50.453C102.093 50.7115 101.807 50.8814 101.545 50.8943C101.282 50.9071 101.031 50.8215 100.771 50.8372C100.755 50.8352 100.739 50.8364 100.724 50.8406C100.709 50.8449 100.694 50.8522 100.682 50.862C100.67 50.8719 100.659 50.8841 100.652 50.898C100.644 50.9119 100.639 50.9271 100.638 50.9428C100.622 51.033 100.629 51.1259 100.658 51.2127C100.687 51.2996 100.738 51.3776 100.805 51.4398C100.941 51.5636 101.099 51.6605 101.27 51.7254C101.47 51.8241 101.686 51.887 101.907 51.911C102.346 51.9396 102.748 51.6968 103.164 51.5554C103.724 51.367 104.326 51.3612 104.918 51.3627C105.509 51.3641 106.109 51.3727 106.675 51.207C107.242 51.0414 107.781 50.6744 108.002 50.1275C108.028 50.0764 108.037 50.0182 108.026 49.9618C108.004 49.9017 107.962 49.8511 107.906 49.819C107.11 49.2293 106.787 48.5124 105.89 48.0883L105.836 48.0541Z" fill="#FBBEBE"/>
<path opacity="0.1" d="M105.836 48.0541C105.367 48.294 104.869 48.5396 104.345 48.5053C103.874 48.4753 103.444 48.2197 103.09 47.907C102.804 47.6585 102.51 47.3486 102.134 47.3743C101.883 47.3915 101.672 47.5614 101.477 47.7228L100.442 48.5895C100.268 48.7067 100.136 48.877 100.067 49.0751C100.046 49.2095 100.054 49.3467 100.091 49.4777C100.138 49.7091 100.217 49.979 100.439 50.0575C100.662 50.136 100.905 49.9675 101.14 49.9033C101.284 49.8665 101.436 49.8692 101.578 49.9112C101.721 49.9532 101.849 50.0328 101.95 50.1418C102.034 50.2245 102.085 50.3353 102.093 50.453C102.093 50.7115 101.807 50.8814 101.545 50.8943C101.282 50.9071 101.031 50.8215 100.771 50.8372C100.755 50.8352 100.739 50.8364 100.724 50.8406C100.709 50.8449 100.694 50.8522 100.682 50.862C100.67 50.8719 100.659 50.8841 100.652 50.898C100.644 50.9119 100.639 50.9271 100.638 50.9428C100.622 51.033 100.629 51.1259 100.658 51.2127C100.687 51.2996 100.738 51.3776 100.805 51.4398C100.941 51.5636 101.099 51.6605 101.27 51.7254C101.47 51.8241 101.686 51.887 101.907 51.911C102.346 51.9396 102.748 51.6968 103.164 51.5554C103.724 51.367 104.326 51.3612 104.918 51.3627C105.509 51.3641 106.109 51.3727 106.675 51.207C107.242 51.0414 107.781 50.6744 108.002 50.1275C108.028 50.0764 108.037 50.0182 108.026 49.9618C108.004 49.9017 107.962 49.8511 107.906 49.819C107.11 49.2293 106.787 48.5124 105.89 48.0883L105.836 48.0541Z" fill="black"/>
<path d="M122.558 32.824C122.336 32.681 122.085 32.5908 121.823 32.5603C121.561 32.5299 121.295 32.56 121.047 32.6483C120.549 32.8275 120.103 33.125 119.746 33.5151C119.39 33.8785 119.081 34.286 118.828 34.7275C118.585 35.1559 118.399 35.6043 118.157 36.0313C117.728 36.7952 117.168 37.4693 116.606 38.1376C116.256 38.5531 115.902 38.9744 115.453 39.28C115.005 39.5856 114.504 39.7726 114.2 40.1968C114.104 40.331 114.035 40.4824 113.941 40.618C113.643 41.055 113.136 41.2892 112.695 41.5819C111.429 42.4244 110.642 43.8267 109.46 44.7821C108.95 45.1933 108.375 45.5161 107.874 45.9359C107.407 46.3257 107.017 46.7927 106.551 47.1925C106.086 47.5924 105.539 47.9223 104.932 47.9594C105.337 48.8633 105.822 49.7501 106.517 50.4541C107.212 51.1581 108.255 51.6079 109.204 51.3323C109.541 51.2352 109.871 51.0296 110 50.704C110.04 50.5367 110.097 50.3736 110.168 50.2171C110.264 50.0914 110.388 49.9901 110.53 49.9215C114.342 47.6963 117.975 45.1788 121.398 42.3916C122.316 41.6433 123.227 40.9736 124.17 40.2496C124.508 40.0099 124.82 39.7362 125.102 39.4328C125.495 38.9634 125.741 38.3883 125.808 37.7797C125.875 37.1712 125.761 36.5564 125.479 36.0127C125.227 35.5967 124.937 35.2044 124.614 34.8403C124.026 34.0752 123.334 33.3965 122.558 32.824Z" fill="#A7001E"/>
<path opacity="0.1" d="M122.558 32.824C122.336 32.681 122.085 32.5908 121.823 32.5603C121.561 32.5299 121.295 32.56 121.047 32.6483C120.549 32.8275 120.103 33.125 119.746 33.5151C119.39 33.8785 119.081 34.286 118.828 34.7275C118.585 35.1559 118.399 35.6043 118.157 36.0313C117.728 36.7952 117.168 37.4693 116.606 38.1376C116.256 38.5531 115.902 38.9744 115.453 39.28C115.005 39.5856 114.504 39.7726 114.2 40.1968C114.104 40.331 114.035 40.4824 113.941 40.618C113.643 41.055 113.136 41.2892 112.695 41.5819C111.429 42.4244 110.642 43.8267 109.46 44.7821C108.95 45.1933 108.375 45.5161 107.874 45.9359C107.407 46.3257 107.017 46.7927 106.551 47.1925C106.086 47.5924 105.539 47.9223 104.932 47.9594C105.337 48.8633 105.822 49.7501 106.517 50.4541C107.212 51.1581 108.255 51.6079 109.204 51.3323C109.541 51.2352 109.871 51.0296 110 50.704C110.04 50.5367 110.097 50.3736 110.168 50.2171C110.264 50.0914 110.388 49.9901 110.53 49.9215C114.342 47.6963 117.975 45.1788 121.398 42.3916C122.316 41.6433 123.227 40.9736 124.17 40.2496C124.508 40.0099 124.82 39.7362 125.102 39.4328C125.495 38.9634 125.741 38.3883 125.808 37.7797C125.875 37.1712 125.761 36.5564 125.479 36.0127C125.227 35.5967 124.937 35.2044 124.614 34.8403C124.026 34.0752 123.334 33.3965 122.558 32.824Z" fill="black"/>
<path d="M116.422 85.7987C116.172 85.9415 115.865 86.0215 115.689 86.2528C115.632 86.3271 115.593 86.4142 115.532 86.4856C115.342 86.7084 115.005 86.7184 114.741 86.8455C114.53 86.9454 114.358 87.1311 114.134 87.1896C114 87.2215 113.862 87.2321 113.724 87.221L112.336 87.1796C111.896 87.1668 111.381 87.1896 111.125 87.548C111.042 87.6794 110.983 87.8244 110.951 87.9764C110.844 88.3863 110.757 88.8504 110.981 89.2102C111.249 89.6386 111.838 89.7257 112.345 89.7543C114.303 89.8626 116.267 89.8245 118.22 89.6401C118.484 89.6063 118.75 89.5953 119.016 89.6072C119.228 89.6244 119.435 89.6715 119.643 89.7072C120.696 89.8857 121.772 89.7814 122.835 89.6758C123.014 89.6671 123.191 89.6295 123.359 89.5644C123.442 89.5303 123.516 89.4766 123.574 89.4077C123.632 89.3387 123.672 89.2568 123.692 89.1688C123.736 88.8746 123.46 88.6247 123.43 88.3291C123.409 88.1207 123.509 87.8879 123.395 87.7108C123.352 87.6586 123.304 87.6108 123.252 87.568C123.06 87.3695 123.005 87.0796 122.958 86.8083L122.708 85.3418C122.701 85.2384 122.658 85.1406 122.588 85.0647C122.535 85.0269 122.475 85.002 122.411 84.9919C121.323 84.7463 120.207 84.9705 119.126 85.1076C118.57 85.1891 118.007 85.2173 117.446 85.1918C117.203 85.1761 117.109 85.1476 116.927 85.3061C116.746 85.4646 116.649 85.6659 116.422 85.7987Z" fill="#3F3D56"/>
<path d="M142.7 87.564C142.509 87.6707 142.304 87.751 142.091 87.8025C141.531 87.9662 140.971 88.1371 140.412 88.3151C140.263 88.3519 140.124 88.419 140.002 88.5122C139.808 88.6835 139.758 88.9634 139.744 89.2262C139.725 89.3709 139.742 89.518 139.794 89.6546C139.861 89.7826 139.959 89.8917 140.079 89.9716C140.719 90.4557 141.554 90.6056 142.357 90.6056C143.16 90.6056 143.956 90.47 144.759 90.4485C145.728 90.4228 146.724 90.5599 147.656 90.2886C147.834 90.2228 148.019 90.1778 148.207 90.1544C148.333 90.1525 148.458 90.1606 148.582 90.1786C149.082 90.2281 149.587 90.182 150.07 90.043C150.215 90.0108 150.35 89.9436 150.464 89.8474C150.52 89.7987 150.56 89.7342 150.579 89.6624C150.598 89.5905 150.594 89.5146 150.569 89.4447C150.518 89.329 150.387 89.2447 150.385 89.1176C150.392 89.0566 150.408 88.9969 150.432 88.9406C150.491 88.7449 150.397 88.5407 150.331 88.348C150.147 87.7967 150.177 87.1627 149.847 86.6843C149.517 86.206 148.911 86.0089 148.336 85.9332C147.868 85.8671 147.393 85.8807 146.929 85.9732C146.408 86.0846 145.921 86.3173 145.41 86.4658C144.817 86.6365 144.197 86.6951 143.582 86.6386C143.174 86.6044 143.314 86.6686 143.175 87.0113C143.077 87.2399 142.911 87.4328 142.7 87.564Z" fill="#3F3D56"/>
<path d="M119.881 32.096C122.168 32.096 124.022 30.2419 124.022 27.9548C124.022 25.6677 122.168 23.8136 119.881 23.8136C117.593 23.8136 115.739 25.6677 115.739 27.9548C115.739 30.2419 117.593 32.096 119.881 32.096Z" fill="#FBBEBE"/>
<path d="M149.902 86.0826C148.617 87.1864 146.882 87.6691 145.19 87.6862C144.476 87.6934 143.735 87.6163 143.127 87.2464C143.084 87.0122 143.067 86.7595 143.024 86.5253C142.285 86.3711 141.713 85.7699 141.356 85.1044C140.999 84.439 140.817 83.6993 140.552 82.9938C140.146 81.92 139.552 80.9304 138.958 79.9479C138.413 79.0425 137.866 78.1343 137.245 77.279C136.833 76.7078 136.388 76.1708 135.981 75.6011C134.828 74.015 134 72.2164 133.546 70.3089C133.477 69.9431 133.378 69.5835 133.25 69.2336C133.005 68.6367 132.555 68.1512 132.208 67.6071C131.834 67.02 131.577 66.3657 131.453 65.6807C131.383 65.2923 131.263 64.8725 130.873 64.8325C130.053 66.4247 129.218 68.0427 127.978 69.3378C127.784 69.5248 127.605 69.7284 127.446 69.9462C127.318 70.1577 127.203 70.3771 127.103 70.6031C126.911 71.0083 126.655 71.3804 126.346 71.7055C126.087 71.9826 125.746 72.1689 125.372 72.2367C125.648 73.6088 125.484 75.0328 124.904 76.3065C124.731 76.6835 124.524 77.0433 124.361 77.4246C123.696 78.9954 123.85 80.7676 123.78 82.4712C123.774 82.8282 123.732 83.1837 123.654 83.5322C123.482 84.2291 123.125 84.9702 123.297 85.6671C121.507 86.3511 119.517 86.3082 117.621 86.0198C117.25 85.9858 116.89 85.8765 116.563 85.6985C116.294 85.5081 116.059 85.2734 115.869 85.0045C115.795 84.9261 115.741 84.8317 115.71 84.7289C115.636 84.4033 115.996 84.1577 116.163 83.8721C116.33 83.5865 116.36 83.1338 116.13 82.8996C116.244 81.0303 116.761 79.2053 116.876 77.3304C116.921 76.5878 116.903 75.8424 116.937 75.0984C116.971 74.3544 117.051 73.6304 117.134 72.8993C117.323 71.23 117.78 69.5935 117.715 67.9156C117.696 67.3992 117.815 66.8869 118.059 66.4319C118.266 66.0861 118.5 65.7575 118.759 65.4494C119.636 64.317 120.69 63.1817 121.003 61.7837C121.164 61.0626 121.521 60.4028 121.875 59.7545C122.085 59.3675 122.303 58.972 122.638 58.6878C122.819 58.562 122.988 58.4185 123.142 58.2594C123.376 57.9581 123.384 57.5454 123.523 57.1856C123.594 56.9999 123.704 56.8286 123.757 56.6372C123.801 56.4258 123.822 56.2104 123.821 55.9946C123.867 55.3034 124.133 54.6351 124.413 54.0025C123.754 53.6215 123.173 53.1207 122.699 52.526C122.54 52.3329 122.401 52.1237 122.285 51.9019C121.991 51.3222 121.924 50.661 121.785 50.0256C121.455 48.509 120.697 47.0824 120.591 45.5331C120.56 45.0604 120.591 44.572 120.427 44.1251C120.351 43.9359 120.263 43.7522 120.161 43.5753C120.062 43.4015 119.986 43.2151 119.936 43.0212C119.844 42.5999 119.97 42.1644 119.936 41.736C119.902 41.3576 119.74 41.0034 119.66 40.6336C119.579 40.1524 119.565 39.6621 119.619 39.177C119.655 38.6058 119.779 38.0161 119.73 37.452C119.651 36.5186 119.77 35.5792 120.079 34.6949C120.388 33.8105 120.88 33.0012 121.522 32.3198L121.555 32.2869C121.828 32.0013 122.126 31.7486 122.372 31.4458C122.706 31.0403 122.943 30.5633 123.296 30.1692C123.45 29.9936 123.624 29.8365 123.777 29.6594C123.917 29.4737 124.073 29.2998 124.241 29.1396C124.327 29.0603 124.43 29.0032 124.543 28.973C124.655 28.9429 124.773 28.9408 124.887 28.9668C124.915 29.1798 124.982 29.3858 125.084 29.5751C125.381 29.598 125.645 29.6394 125.941 29.6623C126.078 29.6688 126.214 29.6898 126.346 29.7251C126.625 29.8093 126.847 30.0107 127.086 30.1835C127.68 30.6019 128.41 30.7961 128.994 31.2273C129.85 31.8628 130.279 32.9124 130.796 33.8534C131.48 35.1144 132.595 36.1868 133.081 37.5348L133.75 39.3684C134.189 40.565 134.627 41.766 135.221 42.8941C136.048 44.4649 137.167 45.8801 137.832 47.5237C137.898 47.6886 138.021 47.8243 138.179 47.9064C139.083 49.1745 139.886 50.5114 140.582 51.9048C140.949 52.6417 141.296 53.4071 141.401 54.2225C141.557 55.3748 141.243 56.5401 140.806 57.6168C140.735 57.771 140.687 57.9345 140.663 58.1023C140.635 58.3751 140.739 58.6435 140.767 58.9163C140.795 59.171 140.757 59.4286 140.658 59.6646C140.569 59.8304 140.494 60.0033 140.433 60.1815C140.356 60.5099 140.493 60.8441 140.568 61.1725C140.819 62.285 140.773 63.4374 140.71 64.5769C140.677 65.1481 141.139 65.6008 141.523 66.0192C142.237 66.8032 142.794 67.7199 143.332 68.6353C143.625 69.0995 143.872 69.5912 144.069 70.1033C144.273 70.6873 144.355 71.3056 144.467 71.9125C144.83 73.7847 146.018 75.4397 146.341 77.3175C146.49 78.1778 146.872 78.9811 147.443 79.6409C147.616 79.8194 147.775 80.0103 147.919 80.2121C148.018 80.3723 148.096 80.544 148.153 80.7233C148.293 81.1403 148.36 81.5787 148.349 82.0185C148.326 82.229 148.338 82.4417 148.384 82.6483C148.519 83.0838 148.998 83.3237 149.196 83.7335C149.393 84.1434 149.257 84.6689 149.338 85.1344C149.4 85.5104 149.601 85.8491 149.902 86.0826Z" fill="#A7001E"/>
<path d="M106.693 46.7686C106.225 47.0085 105.726 47.2541 105.202 47.2198C104.731 47.1898 104.301 46.9342 103.947 46.6215C103.662 46.373 103.367 46.0631 102.992 46.0888C102.74 46.106 102.529 46.2759 102.335 46.4373L101.3 47.3041C101.125 47.4212 100.994 47.5915 100.924 47.7896C100.904 47.924 100.912 48.0613 100.948 48.1923C100.995 48.4236 101.074 48.6935 101.297 48.7721C101.52 48.8506 101.762 48.6821 101.998 48.6178C102.142 48.5811 102.293 48.5838 102.436 48.6258C102.578 48.6677 102.707 48.7474 102.808 48.8563C102.892 48.9391 102.943 49.0499 102.95 49.1676C102.95 49.4261 102.665 49.596 102.402 49.6089C102.139 49.6217 101.888 49.5361 101.628 49.5518C101.612 49.5498 101.596 49.551 101.581 49.5552C101.566 49.5595 101.552 49.5668 101.539 49.5766C101.527 49.5865 101.517 49.5987 101.509 49.6126C101.502 49.6264 101.497 49.6417 101.495 49.6574C101.479 49.7476 101.486 49.8405 101.515 49.9273C101.544 50.0142 101.595 50.0923 101.662 50.1544C101.798 50.2782 101.956 50.3752 102.128 50.44C102.328 50.5388 102.543 50.6016 102.765 50.6256C103.203 50.6542 103.606 50.4114 104.021 50.2701C104.581 50.0816 105.184 50.0758 105.775 50.0773C106.366 50.0787 106.966 50.0873 107.533 49.9216C108.1 49.756 108.638 49.389 108.859 48.842C108.886 48.791 108.894 48.7328 108.884 48.6764C108.862 48.6162 108.819 48.5657 108.764 48.5336C107.967 47.9438 107.644 47.227 106.747 46.8028L106.693 46.7686Z" fill="#FBBEBE"/>
<path d="M117.865 25.41C117.618 25.45 117.408 25.6171 117.173 25.7099C117.016 25.7709 116.848 25.7979 116.68 25.7891C116.511 25.7802 116.347 25.7357 116.197 25.6585C116.092 25.6077 116.001 25.5334 115.93 25.4414C115.738 25.1758 115.805 24.7902 115.922 24.4789C116.477 23.0067 117.956 22.0956 119.421 22.0371C120.886 21.9785 122.311 22.6625 123.467 23.6407C123.81 23.923 124.119 24.2456 124.385 24.6017C124.987 25.4371 125.26 26.5038 125.34 27.5606C125.388 28.004 125.358 28.4524 125.253 28.8858C125.202 29.0963 125.11 29.2946 124.981 29.4685C124.852 29.6425 124.689 29.7886 124.502 29.8982C124.093 30.1067 123.604 30.041 123.191 29.8411C122.778 29.6412 122.424 29.3256 122.07 29.0243C121.91 28.8696 121.72 28.7487 121.512 28.6687C121.408 28.6317 121.296 28.6256 121.189 28.6509C121.081 28.6762 120.984 28.732 120.908 28.8115C120.716 29.0414 120.765 29.4184 120.591 29.6683C120.416 29.9182 120.054 29.9539 119.748 29.9539C119.443 29.9539 119.133 29.9282 118.95 29.6854C118.783 29.4655 118.807 29.1442 118.87 28.8672C118.933 28.5902 119.04 28.316 119.013 28.0318C118.954 27.4606 118.454 27.1093 118.299 26.5838C118.197 26.2397 118.42 26.094 118.397 25.7827C118.38 25.5085 118.086 25.3743 117.865 25.41Z" fill="#3F3D56"/>
<path opacity="0.1" d="M130.876 64.797V64.8327C130.056 66.4249 129.221 68.0429 127.982 69.3381C127.787 69.5251 127.609 69.7286 127.449 69.9464C127.321 70.1579 127.206 70.3773 127.106 70.6033C126.914 71.0085 126.658 71.3806 126.349 71.7057L125.315 72.2226L128.6 55.0866L130.876 64.797Z" fill="black"/>
<path opacity="0.1" d="M126.103 38.8619C125.821 39.1653 125.509 39.439 125.171 39.6787C124.228 40.3927 123.314 41.0667 122.399 41.8207C121.661 42.4214 120.913 43.0097 120.154 43.5857C120.055 43.4119 119.979 43.2256 119.929 43.0316C119.837 42.6104 119.963 42.1748 119.929 41.7464C119.894 41.368 119.733 41.0139 119.653 40.644C119.571 40.1628 119.558 39.6726 119.612 39.1875C119.647 38.6163 119.772 38.0265 119.723 37.4625C119.644 36.5268 119.764 35.5851 120.074 34.6989C120.384 33.8128 120.878 33.0022 121.524 32.3202L121.557 32.2874C121.71 32.198 121.873 32.1253 122.042 32.0703C122.291 31.983 122.557 31.9541 122.819 31.9858C123.081 32.0175 123.332 32.109 123.553 32.2531C124.329 32.8257 125.022 33.5044 125.609 34.2695C125.932 34.6335 126.222 35.0259 126.475 35.4418C126.757 35.985 126.872 36.5995 126.806 37.208C126.74 37.8165 126.495 38.3919 126.103 38.8619Z" fill="black"/>
<path d="M123.415 31.5388C123.193 31.3958 122.942 31.3056 122.68 31.2752C122.418 31.2447 122.153 31.2748 121.904 31.3632C121.407 31.5424 120.96 31.8399 120.603 32.23C120.247 32.5934 119.938 33.0008 119.685 33.4423C119.442 33.8707 119.257 34.3191 119.014 34.7461C118.585 35.5101 118.026 36.1841 117.463 36.8524C117.113 37.268 116.759 37.6892 116.311 37.9948C115.862 38.3004 115.361 38.4875 115.057 38.9116C114.961 39.0458 114.893 39.1972 114.798 39.3329C114.5 39.7698 113.993 40.004 113.552 40.2968C112.286 41.1393 111.5 42.5416 110.317 43.4969C109.807 43.9082 109.232 44.2309 108.731 44.6507C108.264 45.0406 107.874 45.5075 107.408 45.9074C106.943 46.3072 106.396 46.6371 105.789 46.6742C106.195 47.5782 106.679 48.4649 107.374 49.1689C108.07 49.873 109.112 50.3228 110.062 50.0472C110.399 49.9501 110.729 49.7444 110.857 49.4188C110.897 49.2515 110.954 49.0884 111.026 48.9319C111.121 48.8062 111.245 48.7049 111.387 48.6363C115.199 46.4111 118.833 43.8936 122.255 41.1064C123.174 40.3582 124.085 39.6884 125.027 38.9644C125.365 38.7248 125.677 38.4511 125.96 38.1476C126.353 37.6782 126.598 37.1031 126.665 36.4946C126.732 35.8861 126.618 35.2713 126.337 34.7275C126.084 34.3116 125.794 33.9192 125.471 33.5552C124.884 32.7901 124.191 32.1113 123.415 31.5388Z" fill="#A7001E"/>
<g opacity="0.1">
<path opacity="0.1" d="M120.033 29.3783C119.748 29.3783 119.418 29.3526 119.235 29.1098C119.07 28.8899 119.092 28.5686 119.155 28.2916C119.218 28.0145 119.325 27.7404 119.298 27.4562C119.239 26.885 118.74 26.5337 118.584 26.0082C118.483 25.664 118.705 25.5184 118.683 25.2071C118.663 24.9372 118.37 24.803 118.148 24.8387C117.901 24.8786 117.692 25.0457 117.457 25.1385C117.3 25.1996 117.132 25.2266 116.963 25.2177C116.795 25.2089 116.63 25.1644 116.481 25.0871C116.376 25.0363 116.285 24.962 116.214 24.8701C116.022 24.6045 116.089 24.2189 116.206 23.9076C116.206 23.8962 116.216 23.8862 116.221 23.8748C116.101 24.0658 116.001 24.2681 115.921 24.4788C115.804 24.7901 115.737 25.1757 115.928 25.4413C115.999 25.5332 116.09 25.6075 116.195 25.6583C116.345 25.7356 116.509 25.7801 116.678 25.7889C116.846 25.7978 117.015 25.7708 117.172 25.7097C117.406 25.6169 117.616 25.4498 117.863 25.4099C118.084 25.3742 118.377 25.5084 118.397 25.7783C118.42 26.0896 118.197 26.2352 118.298 26.5794C118.451 27.1049 118.951 27.4619 119.012 28.0274C119.041 28.313 118.937 28.5872 118.87 28.8628C118.802 29.1384 118.784 29.4611 118.95 29.681C119.132 29.9238 119.459 29.9466 119.748 29.9495C120.036 29.9523 120.408 29.9323 120.59 29.6639C120.669 29.529 120.721 29.3801 120.743 29.2255C120.549 29.364 120.278 29.3811 120.033 29.3783Z" fill="black"/>
<path opacity="0.1" d="M124.787 29.327C124.378 29.5355 123.888 29.4698 123.476 29.2699C123.063 29.0699 122.709 28.7544 122.355 28.4531C122.194 28.2984 122.004 28.1774 121.796 28.0975C121.693 28.0605 121.581 28.0543 121.473 28.0797C121.366 28.105 121.269 28.1608 121.192 28.2403C121.095 28.3836 121.034 28.5482 121.014 28.7201C121.088 28.6763 121.171 28.649 121.257 28.6399C121.342 28.6308 121.429 28.6401 121.511 28.6673C121.719 28.7472 121.909 28.8681 122.069 29.0228C122.423 29.3241 122.783 29.6411 123.19 29.8396C123.597 30.0381 124.093 30.1052 124.501 29.8968C124.862 29.6853 125.125 29.34 125.234 28.9357C125.116 29.0984 124.963 29.2322 124.787 29.327Z" fill="black"/>
</g>
<path d="M89.2501 90.7156C91.6161 90.7156 93.5342 88.7975 93.5342 86.4316C93.5342 84.0656 91.6161 82.1476 89.2501 82.1476C86.8841 82.1476 84.9661 84.0656 84.9661 86.4316C84.9661 88.7975 86.8841 90.7156 89.2501 90.7156Z" fill="#3F3D56"/>
<path opacity="0.1" d="M89.2501 90.7156C91.6161 90.7156 93.5342 88.7975 93.5342 86.4316C93.5342 84.0656 91.6161 82.1476 89.2501 82.1476C86.8841 82.1476 84.9661 84.0656 84.9661 86.4316C84.9661 88.7975 86.8841 90.7156 89.2501 90.7156Z" fill="black"/>
<path d="M89.2498 89.1447C90.7483 89.1447 91.963 87.9299 91.963 86.4315C91.963 84.933 90.7483 83.7183 89.2498 83.7183C87.7514 83.7183 86.5366 84.933 86.5366 86.4315C86.5366 87.9299 87.7514 89.1447 89.2498 89.1447Z" fill="#65617D"/>
<path opacity="0.1" d="M89.2498 89.1447C90.7483 89.1447 91.963 87.9299 91.963 86.4315C91.963 84.933 90.7483 83.7183 89.2498 83.7183C87.7514 83.7183 86.5366 84.933 86.5366 86.4315C86.5366 87.9299 87.7514 89.1447 89.2498 89.1447Z" fill="black"/>
<path d="M85.9653 79.7198L88.7756 86.0745C88.8175 86.1697 88.8857 86.251 88.9722 86.3088C89.0588 86.3666 89.16 86.3984 89.2641 86.4005C89.3681 86.4026 89.4705 86.3749 89.5593 86.3207C89.6481 86.2665 89.7196 86.188 89.7652 86.0945L93.1053 79.2914L85.9653 79.7198Z" fill="#3F3D56"/>
<path opacity="0.1" d="M85.9653 79.7198L88.7756 86.0745C88.8175 86.1697 88.8857 86.251 88.9722 86.3088C89.0588 86.3666 89.16 86.3984 89.2641 86.4005C89.3681 86.4026 89.4705 86.3749 89.5593 86.3207C89.6481 86.2665 89.7196 86.188 89.7652 86.0945L93.1053 79.2914L85.9653 79.7198Z" fill="black"/>
<path d="M62.546 90.7156C64.9119 90.7156 66.8299 88.7975 66.8299 86.4316C66.8299 84.0656 64.9119 82.1476 62.546 82.1476C60.18 82.1476 58.262 84.0656 58.262 86.4316C58.262 88.7975 60.18 90.7156 62.546 90.7156Z" fill="#3F3D56"/>
<path opacity="0.1" d="M62.546 90.7156C64.9119 90.7156 66.8299 88.7975 66.8299 86.4316C66.8299 84.0656 64.9119 82.1476 62.546 82.1476C60.18 82.1476 58.262 84.0656 58.262 86.4316C58.262 88.7975 60.18 90.7156 62.546 90.7156Z" fill="black"/>
<path d="M62.5462 89.1447C64.0447 89.1447 65.2594 87.9299 65.2594 86.4315C65.2594 84.933 64.0447 83.7183 62.5462 83.7183C61.0477 83.7183 59.833 84.933 59.833 86.4315C59.833 87.9299 61.0477 89.1447 62.5462 89.1447Z" fill="#65617D"/>
<path opacity="0.1" d="M62.5462 89.1447C64.0447 89.1447 65.2594 87.9299 65.2594 86.4315C65.2594 84.933 64.0447 83.7183 62.5462 83.7183C61.0477 83.7183 59.833 84.933 59.833 86.4315C59.833 87.9299 61.0477 89.1447 62.5462 89.1447Z" fill="black"/>
<path d="M59.262 79.7198L62.0723 86.0745C62.1141 86.1697 62.1823 86.251 62.2689 86.3088C62.3554 86.3666 62.4567 86.3984 62.5607 86.4005C62.6647 86.4026 62.7672 86.3749 62.856 86.3207C62.9448 86.2665 63.0162 86.188 63.0619 86.0945L66.402 79.2914L59.262 79.7198Z" fill="#3F3D56"/>
<path opacity="0.1" d="M59.262 79.7198L62.0723 86.0745C62.1141 86.1697 62.1823 86.251 62.2689 86.3088C62.3554 86.3666 62.4567 86.3984 62.5607 86.4005C62.6647 86.4026 62.7672 86.3749 62.856 86.3207C62.9448 86.2665 63.0162 86.188 63.0619 86.0945L66.402 79.2914L59.262 79.7198Z" fill="black"/>
<path d="M103.153 49.1247C103.142 49.0165 103.103 48.913 103.041 48.8237C102.979 48.7344 102.895 48.6621 102.798 48.6134C102.716 48.5785 102.628 48.5604 102.539 48.5603C102.45 48.5601 102.361 48.5779 102.279 48.6125C102.197 48.6472 102.123 48.698 102.061 48.7619C101.999 48.8259 101.95 48.9016 101.918 48.9847L99.4606 55.0866L98.7466 82.5042H99.889L100.317 55.1451L103.094 49.5388C103.157 49.4105 103.178 49.2656 103.153 49.1247Z" fill="#3F3D56"/>
<path d="M52.6216 80.3625L56.4772 77.9349L98.1034 77.5779L99.1744 80.3625H52.6216Z" fill="#A7001E"/>
<path d="M52.6216 82.9325V80.3621L99.9284 79.9051L99.8827 81.6473H53.4784V82.9325H52.6216Z" fill="#3F3D56"/>
<path d="M58.6197 92.2147C60.9857 92.2147 62.9037 90.2967 62.9037 87.9307C62.9037 85.5647 60.9857 83.6467 58.6197 83.6467C56.2537 83.6467 54.3357 85.5647 54.3357 87.9307C54.3357 90.2967 56.2537 92.2147 58.6197 92.2147Z" fill="#3F3D56"/>
<path d="M58.619 90.6439C60.1174 90.6439 61.3322 89.4291 61.3322 87.9307C61.3322 86.4322 60.1174 85.2175 58.619 85.2175C57.1205 85.2175 55.9058 86.4322 55.9058 87.9307C55.9058 89.4291 57.1205 90.6439 58.619 90.6439Z" fill="#65617D"/>
<path d="M55.3357 81.2193L58.146 87.5739C58.1878 87.6692 58.2561 87.7505 58.3426 87.8082C58.4291 87.866 58.5304 87.8978 58.6344 87.8999C58.7384 87.902 58.8409 87.8743 58.9297 87.8201C59.0185 87.7659 59.0899 87.6874 59.1356 87.5939L62.4757 80.7909L55.3357 81.2193Z" fill="#3F3D56"/>
<path d="M91.8919 92.2147C94.2579 92.2147 96.1759 90.2967 96.1759 87.9307C96.1759 85.5647 94.2579 83.6467 91.8919 83.6467C89.5259 83.6467 87.6079 85.5647 87.6079 87.9307C87.6079 90.2967 89.5259 92.2147 91.8919 92.2147Z" fill="#3F3D56"/>
<path d="M91.8922 90.6439C93.3907 90.6439 94.6054 89.4291 94.6054 87.9307C94.6054 86.4322 93.3907 85.2175 91.8922 85.2175C90.3937 85.2175 89.179 86.4322 89.179 87.9307C89.179 89.4291 90.3937 90.6439 91.8922 90.6439Z" fill="#65617D"/>
<path d="M88.6077 81.2193L91.418 87.5739C91.4598 87.6692 91.528 87.7505 91.6146 87.8082C91.7011 87.866 91.8024 87.8978 91.9064 87.8999C92.0104 87.902 92.1129 87.8743 92.2017 87.8201C92.2905 87.7659 92.3619 87.6874 92.4076 87.5939L95.7477 80.7909L88.6077 81.2193Z" fill="#3F3D56"/>
<path d="M75.827 69.1527H57.9771V79.0059H75.827V69.1527Z" fill="#65617D"/>
<path opacity="0.1" d="M69.6871 70.8663H64.2607V72.0087H69.6871V70.8663Z" fill="black"/>
<path opacity="0.1" d="M69.0083 71.0092H64.9385V71.866H69.0083V71.0092Z" fill="black"/>
<path d="M93.9626 69.1527H76.1125V79.0059H93.9626V69.1527Z" fill="#65617D"/>
<path opacity="0.1" d="M87.8222 70.8663H82.3958V72.0087H87.8222V70.8663Z" fill="black"/>
<path opacity="0.1" d="M87.1434 71.0092H83.0735V71.866H87.1434V71.0092Z" fill="black"/>
<path d="M75.827 59.0137H57.9771V68.867H75.827V59.0137Z" fill="#65617D"/>
<path opacity="0.1" d="M69.6871 60.7275H64.2607V61.87H69.6871V60.7275Z" fill="black"/>
<path opacity="0.1" d="M69.0083 60.8701H64.9385V61.7269H69.0083V60.8701Z" fill="black"/>
<path d="M93.9626 59.0137H76.1125V68.867H93.9626V59.0137Z" fill="#65617D"/>
<path opacity="0.1" d="M87.8222 60.7275H82.3958V61.87H87.8222V60.7275Z" fill="black"/>
<path opacity="0.1" d="M87.1434 60.8701H83.0735V61.7269H87.1434V60.8701Z" fill="black"/>
<path d="M75.827 48.7322H57.9771V58.5854H75.827V48.7322Z" fill="#65617D"/>
<path opacity="0.1" d="M69.6871 50.4459H64.2607V51.5883H69.6871V50.4459Z" fill="black"/>
<path opacity="0.1" d="M69.0083 50.5885H64.9385V51.4453H69.0083V50.5885Z" fill="black"/>
<path d="M93.9626 48.7322H76.1125V58.5854H93.9626V48.7322Z" fill="#65617D"/>
<path opacity="0.1" d="M87.8222 50.4459H82.3958V51.5883H87.8222V50.4459Z" fill="black"/>
<path opacity="0.1" d="M87.1434 50.5885H83.0735V51.4453H87.1434V50.5885Z" fill="black"/>
<path d="M93.9626 38.4506H76.1125V48.3038H93.9626V38.4506Z" fill="#65617D"/>
<path opacity="0.1" d="M87.8222 40.1641H82.3958V41.3065H87.8222V40.1641Z" fill="black"/>
<path opacity="0.1" d="M87.1434 40.3068H83.0735V41.1637H87.1434V40.3068Z" fill="black"/>
</g>
<defs>
<linearGradient id="paint0_linear" x1="125.354" y1="90.5922" x2="125.354" y2="21.5997" gradientUnits="userSpaceOnUse">
<stop stop-color="#808080" stop-opacity="0.25"/>
<stop offset="0.54" stop-color="#808080" stop-opacity="0.12"/>
<stop offset="1" stop-color="#808080" stop-opacity="0.1"/>
</linearGradient>
<clipPath id="clip0">
<rect width="163.363" height="93" fill="white"/>
</clipPath>
</defs>
</svg>
