<svg width="125" height="106" viewBox="0 0 125 106" fill="none" xmlns="http://www.w3.org/2000/svg">
<path d="M90.7431 82.3956H73.257L43.4729 85.2895L13.4578 82.3956V11.4825L43.3481 13.653L73.8842 11.4825L103.756 15.5826L102.99 70.0395L90.7431 82.3956Z" fill="url(#paint0_linear)"/>
<path d="M90.1743 81.4092H73.0702L43.9372 84.2254L14.5789 81.4092V12.4127L43.8158 14.5251L73.6831 12.4127L102.901 16.4022L102.152 69.3881L90.1743 81.4092Z" fill="white"/>
<path d="M90.2703 79.5316H72.2555L44.7775 82.188L17.085 79.5316V14.4513L44.6626 16.4444L72.8345 14.4513L100.395 18.2153V69.3492L90.2703 79.5316Z" fill="#A7001E"/>
<path d="M88.9432 81.2395L61.7408 64.0383L77.0375 12.6059L70.034 12.6062L64.5538 34.3559L16.8081 12.606V19.6094L62.6515 40.6757L50.4245 82.6402H55.3269L59.8386 70.358L81.9398 81.2395H88.9432Z" fill="white"/>
<path opacity="0.1" d="M44.6611 82.188L72.2376 79.5316V14.4513L44.6611 16.4444" fill="black"/>
<path d="M88.9937 81.3022L89.206 67.8692L102.151 68.3913L88.9937 81.3022Z" fill="url(#paint1_linear)"/>
<path d="M90.1746 81.3025L90.3672 68.9059L102.152 69.3886L90.1746 81.3025Z" fill="white"/>
<path d="M71.5711 37.9391C71.5711 43.7401 60.6664 60.1579 60.6664 60.1579C60.6664 60.1579 49.7617 43.7401 49.7617 37.9391C49.7617 32.1381 54.6444 27.4415 60.6664 27.4415C66.6884 27.4415 71.5711 32.1414 71.5711 37.9391Z" fill="url(#paint2_linear)"/>
<path d="M60.6671 40.38C62.4878 40.38 63.9638 38.9589 63.9638 37.2059C63.9638 35.4529 62.4878 34.0318 60.6671 34.0318C58.8464 34.0318 57.3704 35.4529 57.3704 37.2059C57.3704 38.9589 58.8464 40.38 60.6671 40.38Z" fill="url(#paint3_linear)"/>
<path d="M69.9177 38.1373C69.9177 43.391 60.3954 58.2765 60.3954 58.2765C60.3954 58.2765 50.873 43.391 50.873 38.1373C50.8369 36.8646 51.0564 35.5975 51.5185 34.4111C51.9806 33.2247 52.6759 32.143 53.5634 31.2301C54.4508 30.3171 55.5124 29.5913 56.6852 29.0958C57.858 28.6002 59.1183 28.3448 60.3915 28.3448C61.6648 28.3448 62.9251 28.6002 64.0979 29.0958C65.2707 29.5913 66.3322 30.3171 67.2197 31.2301C68.1071 32.143 68.8025 33.2247 69.2646 34.4111C69.7267 35.5975 69.9462 36.8646 69.9101 38.1373H69.9177Z" fill="#FF5252"/>
<path d="M60.4002 40.3505C61.9894 40.3505 63.2777 39.0622 63.2777 37.473C63.2777 35.8838 61.9894 34.5955 60.4002 34.5955C58.811 34.5955 57.5227 35.8838 57.5227 37.473C57.5227 39.0622 58.811 40.3505 60.4002 40.3505Z" fill="white"/>
<defs>
<linearGradient id="paint0_linear" x1="58.6068" y1="85.2895" x2="58.6068" y2="11.4825" gradientUnits="userSpaceOnUse">
<stop stop-color="#808080" stop-opacity="0.25"/>
<stop offset="0.54" stop-color="#808080" stop-opacity="0.12"/>
<stop offset="1" stop-color="#808080" stop-opacity="0.1"/>
</linearGradient>
<linearGradient id="paint1_linear" x1="95.5728" y1="81.3022" x2="95.5728" y2="67.8692" gradientUnits="userSpaceOnUse">
<stop stop-opacity="0.12"/>
<stop offset="0.55" stop-opacity="0.09"/>
<stop offset="1" stop-opacity="0.02"/>
</linearGradient>
<linearGradient id="paint2_linear" x1="13546.1" y1="18267.8" x2="13546.1" y2="8488.88" gradientUnits="userSpaceOnUse">
<stop stop-opacity="0.12"/>
<stop offset="0.55" stop-opacity="0.09"/>
<stop offset="1" stop-opacity="0.02"/>
</linearGradient>
<linearGradient id="paint3_linear" x1="3711.97" y1="2376.08" x2="3711.97" y2="2007.88" gradientUnits="userSpaceOnUse">
<stop stop-opacity="0.12"/>
<stop offset="0.55" stop-opacity="0.09"/>
<stop offset="1" stop-opacity="0.02"/>
</linearGradient>
</defs>
</svg>
